<svg width="28" height="46" viewBox="0 0 28 46" fill="none" xmlns="http://www.w3.org/2000/svg">
<path fill-rule="evenodd" clip-rule="evenodd" d="M20.745 17.651C20.6829 17.7951 20.6001 17.7539 20.5174 17.7333C20.4346 17.7127 20.3105 17.6098 20.3726 17.8362C20.3726 17.8568 20.3312 17.898 20.3312 17.898C20.0002 17.7127 19.8761 18.0009 19.6692 18.145C19.5451 18.2273 19.3796 18.2479 19.2348 18.0833C19.5037 18.0833 19.6071 17.9186 19.6485 17.7127C19.6692 17.5686 19.7519 17.4451 19.8761 17.5069C20.145 17.651 20.4553 17.5892 20.745 17.651Z" fill="#4271B5"/>
<path fill-rule="evenodd" clip-rule="evenodd" d="M1.33994 44.7814C1.50545 44.7196 1.56751 44.5549 1.67095 44.452C1.79507 44.8431 1.67095 45.1107 1.36063 45.1519C1.21582 45.1725 1.13307 45.1313 1.15376 44.9666C1.19513 44.8019 1.33994 44.5961 0.988254 44.6373L0.946879 44.5549C1.05032 44.4726 1.05032 44.2873 1.19513 44.2462C1.29857 44.2256 1.21582 44.3491 1.23651 44.3491C1.52613 44.4726 1.29857 44.6579 1.33994 44.7814Z" fill="#4271B5"/>
<path fill-rule="evenodd" clip-rule="evenodd" d="M7.23596 14.9132C7.19459 15.0573 7.36009 15.1602 7.25665 15.3661C7.04978 14.9544 6.71877 14.6045 6.82221 14.0898C6.94634 14.2545 7.09115 14.378 7.15321 14.5427C7.21528 14.6456 7.04978 14.8309 7.23596 14.9132Z" fill="#4271B5"/>
<path fill-rule="evenodd" clip-rule="evenodd" d="M9.20122 40.6027C9.0771 40.2734 9.36673 40.1087 9.47016 39.8823C9.49085 39.8411 9.59429 39.8205 9.63566 39.8617C9.69773 39.9234 9.69773 40.0263 9.65635 40.0881C9.51154 40.2734 9.42879 40.4792 9.20122 40.6027Z" fill="#4271B5"/>
<path fill-rule="evenodd" clip-rule="evenodd" d="M7.85652 38.2561C7.77377 38.3796 7.79446 38.5031 7.64965 38.5443C7.60827 38.3796 7.31865 38.4207 7.31865 38.2149C7.31865 38.112 7.4014 38.0296 7.50483 38.0708C7.62896 38.112 7.77377 38.1531 7.85652 38.2561Z" fill="#4271B5"/>
<path fill-rule="evenodd" clip-rule="evenodd" d="M11.932 34.7361C11.8493 35.0449 11.7045 35.2096 11.601 35.3742C11.539 35.4566 11.4562 35.5595 11.3321 35.4566C11.2494 35.3742 11.3321 35.2919 11.3942 35.2096C11.5597 35.0861 11.7252 34.942 11.932 34.7361Z" fill="#4271B5"/>
<path fill-rule="evenodd" clip-rule="evenodd" d="M17.5798 29.5282C17.5591 29.7752 17.4763 30.0017 17.2695 30.2693C17.1867 29.8782 17.4143 29.7135 17.5798 29.5282Z" fill="#4271B5"/>
<path fill-rule="evenodd" clip-rule="evenodd" d="M21.7586 18.2479C21.6552 18.2479 21.6138 18.1862 21.5931 18.1244C21.5518 18.0421 21.469 17.9392 21.5518 17.8362C21.6138 17.7539 21.6966 17.7539 21.7793 17.7745C21.8 17.7745 21.8828 17.7951 21.8207 17.8156C21.5724 17.9186 21.9241 18.1244 21.7586 18.2479Z" fill="#4271B5"/>
<path fill-rule="evenodd" clip-rule="evenodd" d="M4.52585 41.3438C4.40172 41.3438 4.29828 41.3438 4.31897 41.1791C4.33966 41.035 4.42241 40.9938 4.56722 40.9938C4.73272 40.9938 4.71204 41.0761 4.52585 41.3438Z" fill="#4271B5"/>
<path fill-rule="evenodd" clip-rule="evenodd" d="M6.88427 39.3265C6.98771 39.203 6.86358 38.9765 7.07046 38.9765C7.1739 38.9765 7.23596 39.1618 7.21527 39.2441C7.1739 39.45 7.0084 39.2441 6.88427 39.3265Z" fill="#4271B5"/>
<path fill-rule="evenodd" clip-rule="evenodd" d="M6.98771 15.2837C7.07046 15.3661 7.23596 15.3455 7.23596 15.5102C7.23596 15.5925 7.15321 15.6543 7.04977 15.6337C6.94633 15.6131 6.88427 15.5513 6.88427 15.4278C6.88427 15.3661 6.88427 15.2837 6.98771 15.2837Z" fill="#4271B5"/>
<path fill-rule="evenodd" clip-rule="evenodd" d="M20.6623 18.3303C20.6416 18.3508 20.6002 18.392 20.5795 18.4126C20.5588 18.392 20.5381 18.392 20.5174 18.3714C20.3933 18.3303 20.3313 18.2273 20.3313 18.0832C20.3313 18.0627 20.4347 18.0421 20.4761 18.0421C20.6623 18.0627 20.6623 18.1862 20.6623 18.3303Z" fill="#4271B5"/>
<path fill-rule="evenodd" clip-rule="evenodd" d="M23.7861 18.8243C23.5792 18.9478 23.4551 19.0507 23.3102 18.9272C23.2896 18.9066 23.3102 18.8037 23.3309 18.7625C23.4757 18.5979 23.5585 18.8037 23.7861 18.8243Z" fill="#4271B5"/>
<path fill-rule="evenodd" clip-rule="evenodd" d="M6.76009 42.3936C6.67734 42.373 6.59459 42.3112 6.63597 42.2495C6.67734 42.1465 6.80147 42.1054 6.92559 42.1054C6.98766 42.1054 7.07041 42.1054 7.04972 42.1877C6.98766 42.3318 6.84284 42.3318 6.76009 42.3936Z" fill="#4271B5"/>
<path fill-rule="evenodd" clip-rule="evenodd" d="M7.60828 41.6731C7.60828 41.5908 7.58759 41.5084 7.60828 41.4673C7.69103 41.3849 7.79447 41.3437 7.8979 41.282C7.8979 41.282 7.93928 41.3232 7.95997 41.3643C7.98065 41.5084 7.83584 41.5084 7.75309 41.5702C7.71172 41.5908 7.67034 41.6113 7.60828 41.6731Z" fill="#4271B5"/>
<path fill-rule="evenodd" clip-rule="evenodd" d="M0.802065 44.9666C0.76069 45.0695 0.76069 45.0901 0.76069 45.0901C0.615876 45.0695 0.657252 45.3372 0.49175 45.2754C0.450375 45.2754 0.429688 45.1725 0.429688 45.1725C0.533126 45.1107 0.636564 45.049 0.802065 44.9666Z" fill="#4271B5"/>
<path fill-rule="evenodd" clip-rule="evenodd" d="M19.4623 17.5686C19.3175 17.4863 19.1727 17.5275 19.152 17.3628C19.152 17.3216 19.152 17.2599 19.2141 17.2599C19.3382 17.301 19.421 17.3834 19.4623 17.5686Z" fill="#4271B5"/>
<path fill-rule="evenodd" clip-rule="evenodd" d="M15.1593 16.4159C15.18 16.4159 15.2007 16.4159 15.2214 16.4159C15.3455 16.4159 15.4697 16.3953 15.4903 16.5394C15.4903 16.56 15.449 16.5806 15.4283 16.6012C15.3662 16.5394 15.1593 16.6217 15.1593 16.4159Z" fill="#4271B5"/>
<path fill-rule="evenodd" clip-rule="evenodd" d="M12.4285 15.8807C12.532 15.9013 12.6147 15.716 12.7388 15.8395C12.7595 15.8601 12.7388 15.9425 12.7182 15.963C12.594 16.0454 12.5113 15.9219 12.4285 15.8807Z" fill="#4271B5"/>
<path fill-rule="evenodd" clip-rule="evenodd" d="M15.7385 16.9305C15.5937 17.0952 15.4696 17.0952 15.3041 16.9305C15.4489 16.9305 15.573 16.9305 15.7385 16.9305Z" fill="#4271B5"/>
<path fill-rule="evenodd" clip-rule="evenodd" d="M3.24323 44.0403C3.34666 43.8551 3.4501 43.8756 3.57423 43.9168C3.59492 43.9168 3.59492 43.9991 3.59492 43.9991C3.49148 44.1021 3.38804 43.9991 3.24323 44.0403Z" fill="#4271B5"/>
<path fill-rule="evenodd" clip-rule="evenodd" d="M18.7176 28.6225C18.9038 28.7872 18.8624 28.8695 18.821 28.9725C18.6555 28.9107 18.7589 28.8078 18.7176 28.6225Z" fill="#4271B5"/>
<path fill-rule="evenodd" clip-rule="evenodd" d="M18.9451 17.0746C18.9038 17.2187 18.8003 17.2187 18.6141 17.301C18.7176 17.0952 18.8003 17.054 18.9451 17.0746Z" fill="#4271B5"/>
<path fill-rule="evenodd" clip-rule="evenodd" d="M12.4492 16.1277C12.5734 16.0042 12.7182 16.0865 12.8423 16.0865C12.7182 16.1277 12.594 16.2101 12.4492 16.1277Z" fill="#4271B5"/>
<path fill-rule="evenodd" clip-rule="evenodd" d="M23.0206 18.886C23.0206 18.7008 23.0206 18.5979 23.0206 18.4332C23.0827 18.5979 23.1655 18.6802 23.0206 18.886Z" fill="#4271B5"/>
<path fill-rule="evenodd" clip-rule="evenodd" d="M22.2965 18.0009C22.0897 18.1244 22.0069 18.0421 21.8414 18.0009C22.0069 18.0009 22.0897 18.0009 22.2965 18.0009Z" fill="#4271B5"/>
<path d="M27.5712 0.977702C27.5712 0.915949 27.5299 0.854195 27.4678 0.874779C26.992 1.01887 26.5782 1.08062 26.0817 0.771857C25.8335 0.627765 25.3783 0.792441 25.0266 0.874779C24.5922 0.977702 24.1371 1.03946 23.7854 1.28647C23.5371 1.47173 23.2889 1.61582 22.9993 1.71874C22.8131 1.7805 22.6476 1.84225 22.6269 2.10985C22.6062 2.23336 22.4614 2.33628 22.2752 2.21277C22.1511 2.13043 21.9649 1.96576 21.8407 2.27453C21.7994 2.39803 21.6339 2.37745 21.5304 2.37745C21.096 2.37745 20.6822 2.39803 20.2685 2.62446C20.103 2.72739 19.8961 2.74797 19.7099 2.78914C19.6272 2.80972 19.5237 2.83031 19.5237 2.91265C19.503 3.28317 19.2134 3.30375 18.9445 3.34492C18.7583 3.38609 18.5514 3.38609 18.5721 3.67427C18.5721 3.83895 18.448 3.94187 18.2618 3.92129C18.1377 3.9007 17.9928 3.9007 17.9515 4.02421C17.9101 4.25064 17.7446 4.20947 17.5998 4.27122C17.3515 4.39473 17.0412 4.12713 16.793 4.4359C16.2965 5.05344 15.5931 5.38279 14.8483 5.6298C13.8967 5.93857 12.945 6.22675 12.1589 6.88546C12.0348 6.98838 11.952 7.0913 12.0969 7.19423C12.3451 7.33832 12.1589 7.42066 12.0762 7.52358C12.0348 7.60592 11.8693 7.56475 11.89 7.70884C11.952 7.77059 12.0762 7.68825 12.1175 7.79118C11.6417 7.83235 11.6417 7.83235 11.559 7.50299C11.3728 7.48241 11.4142 7.81176 11.2487 7.77059C10.9383 7.70884 11.0832 7.97644 11.0004 8.07936C10.959 8.14111 10.9177 8.1617 10.8763 8.03819C10.8142 7.85293 10.6487 7.97644 10.5453 7.95585C10.4832 7.95585 10.4832 7.97644 10.4625 8.03819C10.4212 8.32637 10.0902 8.67631 9.86259 8.61456C9.46952 8.53222 9.36608 8.8204 9.26264 9.00566C9.03508 9.41735 8.80752 9.80846 8.31101 10.0143C8.55926 10.0143 8.64201 10.0555 8.55926 10.3025C8.47651 10.5701 8.20757 10.6524 8.06276 10.7965C7.52488 11.2905 7.1525 11.8257 7.09044 12.5462C7.09044 12.6491 7.17319 12.7932 6.96631 12.8138C6.656 12.855 6.71806 13.0196 6.84219 13.2461C6.92494 13.3902 7.11113 13.4931 7.04906 13.6989C6.987 13.9459 7.11113 13.8842 7.25594 13.8224C7.318 13.8019 7.35938 13.7195 7.44213 13.7813C7.50419 14.0695 7.56626 14.3576 7.62832 14.6458C7.64901 14.7076 7.79382 14.7487 7.66969 14.8311C7.60763 14.8928 7.52488 14.8723 7.44213 14.8311C7.38007 14.8105 7.25594 14.6252 7.23525 14.8723C7.52488 15.0987 7.54557 15.4486 7.54557 15.7368C7.54557 15.8809 7.69038 16.1073 7.54557 16.1691C7.29732 16.272 7.4835 16.3955 7.52488 16.4367C7.62832 16.5808 7.71107 16.7454 7.91795 16.766C7.98001 16.766 8.02138 16.7454 8.0007 16.6837C7.93863 16.4984 8.02138 16.519 8.10414 16.6219C8.26964 16.7866 8.39376 16.9719 8.55926 17.1571C8.41445 17.2189 8.26964 17.1365 8.14551 17.2395C8.1662 17.2806 8.18689 17.3218 8.20757 17.3424C8.22826 17.363 8.26964 17.4041 8.29032 17.3836C8.72477 17.2601 8.78683 17.5688 8.84889 17.8776C8.86958 17.9393 8.84889 18.0217 8.95233 18.0423C9.26264 18.104 9.42815 18.3922 9.63502 18.5775C9.86259 18.7833 10.0488 19.0097 10.3591 19.1127C10.7728 19.2362 11.1866 19.4008 11.6004 19.5655C11.8072 19.6479 12.0141 19.7714 12.2624 19.7508C12.4899 19.7302 12.6761 19.689 12.8416 19.9155C12.9244 20.039 13.1105 19.9978 13.2554 19.8743C13.3588 19.7919 13.5036 19.6684 13.6071 19.7714C13.7726 19.9566 13.9794 19.936 14.1656 19.9978C15.4689 20.4301 16.7723 20.8212 18.0963 21.1917C19.0272 21.4387 19.9995 21.521 20.8477 22.0768C21.2408 22.3444 21.6959 22.5091 22.0683 22.7973C22.5855 23.1678 22.6476 23.3737 22.4614 23.8265C22.2131 24.4235 21.9028 24.9587 21.4891 25.4733C21.2615 25.7615 20.8064 26.0291 21.2615 26.4819C21.3649 26.5848 21.2201 26.6466 21.1581 26.6878C21.0753 26.7495 21.0546 26.6466 21.0132 26.6054C20.8684 26.5025 20.9098 26.379 20.9305 26.2349C20.7443 26.6672 20.1444 26.7495 20.0616 27.2847C20.1444 27.2847 20.2478 27.3053 20.3719 27.3053C20.2064 27.6141 20.0202 27.3259 19.8754 27.3465C19.6892 27.3671 19.8134 27.7787 19.4824 27.717C19.3375 27.6964 19.2341 27.7787 19.1307 27.8611C19.0479 27.9228 19.0065 28.0052 19.0272 28.1081C19.1927 28.6227 19.0065 29.0961 18.8824 29.5696C18.8617 29.6519 18.8617 29.7549 18.7583 29.7343C18.6548 29.7137 18.6548 29.5902 18.6135 29.5078C18.5928 29.4461 18.7583 29.4049 18.6548 29.3432C18.5721 29.2814 18.51 29.3843 18.448 29.4255C18.2204 29.5902 18.117 29.8989 17.786 29.9401C17.7653 29.9401 17.7239 30.0019 17.7239 30.0225C17.7239 30.1048 17.786 30.043 17.8273 30.043C17.9308 30.0225 17.9928 30.0842 17.9928 30.1665C17.9928 30.2283 17.9308 30.2489 17.8894 30.2283C17.8067 30.2077 17.6411 30.3106 17.6205 30.1665C17.5791 29.8784 17.4136 30.0019 17.3929 30.1254C17.3308 30.3518 17.186 30.2901 17.0412 30.3106C16.8964 30.3106 16.6895 30.2077 16.6275 30.4753C16.6068 30.5371 16.524 30.5165 16.462 30.5165C16.2551 30.5577 16.0482 30.5988 15.862 30.6606C15.531 30.7635 15.4896 30.887 15.6551 31.2164C15.7793 31.4634 15.7172 31.628 15.4483 31.6486C15.2828 31.6692 15.2828 31.731 15.2621 31.8751C15.2207 32.1015 15.2414 32.4514 14.9724 32.5543C14.4552 32.719 14.2277 33.1101 14.1242 33.5424C14.0001 33.9953 13.6484 34.0364 13.3381 34.1599C13.2967 34.1805 13.2554 34.2011 13.214 34.1599C13.0071 34.0364 12.7382 34.3452 12.552 34.0776C12.5313 34.057 12.4692 34.0982 12.4485 34.1599C12.3865 34.304 12.2624 34.4687 12.3244 34.6128C12.3865 34.7775 12.3037 34.7981 12.2003 34.8804C11.8279 35.0862 11.5383 35.3744 11.4555 35.8067C11.4142 35.9714 11.3728 36.0331 11.1866 35.9508C11.0625 35.889 10.897 35.9096 10.8763 36.0949C10.8349 36.3213 10.6694 36.3213 10.5246 36.2801C10.235 36.1978 10.2143 36.486 10.0488 36.5889C10.1522 36.7124 10.0902 36.733 9.96602 36.8153C9.44883 37.1241 8.76614 37.1035 8.39376 37.6593C8.37307 37.7005 8.29032 37.7005 8.24895 37.7211C8.0007 37.824 7.89726 38.2357 8.04207 38.4621C8.1662 38.2974 8.14551 38.0916 8.1662 37.8652C8.29032 37.9475 8.53858 37.8857 8.47651 38.0916C8.43514 38.2563 8.43514 38.5444 8.20757 38.5444C7.87657 38.5444 7.50419 38.7091 7.21457 38.4004C7.1525 38.3386 7.09044 38.318 7.02838 38.4004C6.987 38.4621 6.987 38.5444 7.06975 38.5856C7.19388 38.6885 7.318 38.8326 7.52488 38.7915C7.60763 38.7709 7.69038 38.812 7.71107 38.915C7.73176 39.0179 7.62832 39.0796 7.56626 39.1208C7.38007 39.2032 7.52488 38.8944 7.35938 38.9355C7.00769 39.2855 7.44213 39.6354 7.33869 39.9854C7.17319 39.9442 7.11113 39.8207 7.04906 39.7178C7.00769 39.656 6.90425 39.5325 6.86288 39.5737C6.71806 39.7589 6.53187 39.6354 6.36637 39.6972C6.38706 39.8413 6.34568 39.9854 6.20087 40.0059C6.07674 40.0265 5.93193 39.9854 5.8078 39.9442C5.74574 39.9236 5.74574 39.8207 5.8078 39.8207C5.97331 39.8001 5.89055 39.4296 6.11812 39.5942C6.20087 39.656 6.26293 39.7178 6.36637 39.7178C6.325 39.656 6.28362 39.5943 6.24225 39.5325C6.20087 39.4707 6.40775 39.3061 6.24225 39.3267C6.07674 39.3472 5.76643 39.3061 5.76643 39.409C5.74574 39.6766 5.45611 39.6972 5.43543 39.903C5.49749 39.9442 5.66299 39.8207 5.60093 40.0265C5.55955 40.1912 5.53887 40.2118 5.72505 40.1912C5.78712 40.1912 5.82849 40.15 5.86987 40.2324C5.91124 40.3147 5.82849 40.3353 5.78712 40.3559C5.68368 40.4176 5.55955 40.6029 5.43543 40.3765C5.41474 40.3353 5.29061 40.3353 5.24924 40.4176C5.16649 40.6852 4.91823 40.8087 4.6493 40.9322C5.1458 40.9734 5.1458 40.9734 4.91824 41.3645C4.89755 41.3851 4.83548 41.4263 4.89755 41.4674C5.04236 41.591 4.95961 41.6115 4.83548 41.6115C4.73205 41.6115 4.62861 41.6115 4.52517 41.6115C4.50448 41.488 4.62861 41.3439 4.48379 41.2616C4.40104 41.4469 4.31829 41.6321 4.23554 41.8174C4.19417 41.8997 4.17348 42.0026 4.04935 41.9203C3.90454 41.8174 3.78041 41.9409 3.6356 42.0232C3.65629 41.8791 3.78041 41.7556 3.65629 41.7145C3.55285 41.6733 3.44941 41.7556 3.40804 41.8997C3.38735 41.9409 3.36666 41.9615 3.36666 42.0026C3.36666 42.1467 3.24253 42.1879 3.15978 42.1879C3.01497 42.1879 3.1391 42.0026 3.01497 41.9409C2.97359 42.1056 2.60122 42.0644 2.84947 42.4143C2.99428 42.5996 2.68397 42.826 2.37365 42.7437C2.18746 42.6819 2.00127 42.6408 1.9599 42.8878C1.91852 43.073 1.87715 43.2789 2.08402 43.4641C2.20815 43.1554 2.47709 43.0525 2.68397 42.8672C2.74603 43.073 2.99428 43.2171 2.78741 43.4641C2.72534 43.5259 2.70465 43.6494 2.58053 43.5877C2.47709 43.5465 2.4564 43.4436 2.51847 43.3406C2.55984 43.2583 2.58053 43.176 2.47709 43.0936C2.4564 43.1348 2.43571 43.176 2.43571 43.1965C2.41503 43.423 2.41503 43.6494 2.41503 43.8553C2.41503 44.0199 2.2909 44.0199 2.24953 44.0611C2.14609 44.1228 2.16678 43.9993 2.16678 43.9376C2.16678 43.7935 2.06334 43.7935 1.98059 43.8141C1.85646 43.8347 1.87715 43.9582 1.89784 43.9993C1.98059 44.1846 1.91852 44.3287 1.81509 44.4728C2.00127 44.5551 2.1254 44.4728 2.20815 44.3699C2.35296 44.2052 2.49778 44.411 2.64259 44.3493C2.66328 44.3493 2.66328 44.3287 2.66328 44.3287C2.64259 44.0817 2.84947 44.0405 2.99428 43.9376C3.26322 43.7729 2.82878 43.6288 2.99428 43.4847C3.01497 43.4641 3.03566 43.4641 3.05634 43.4641C3.15978 43.5053 3.1391 43.7112 3.3046 43.6494C3.40804 43.6082 3.42872 43.4847 3.38735 43.4024C3.20116 43.073 3.4701 43.0319 3.65629 42.8672C3.67698 43.0525 3.67698 43.1965 3.69766 43.3818C3.73904 43.3406 3.78041 43.3406 3.8011 43.2995C3.94591 43.1142 3.94591 42.7231 4.35967 42.8672C4.40104 42.8878 4.54586 42.7849 4.48379 42.6408C4.46311 42.5996 4.40104 42.3114 4.69067 42.4555C4.77342 42.4967 4.85617 42.1467 5.02167 42.3937C5.04236 42.3732 5.10442 42.3526 5.10442 42.332C5.10442 42.0438 5.72505 42.2085 5.49749 41.7556L5.53886 41.7145C5.84918 41.8586 5.95262 41.5292 6.13881 41.4263C6.28362 41.6527 5.95262 41.6939 6.01468 41.9203C6.13881 41.8174 6.26293 41.7556 6.40775 41.8791C6.51119 41.9615 6.61462 41.838 6.59394 41.7556C6.42843 41.2616 7.09044 41.241 7.09044 40.8499C7.11113 40.8499 7.1525 40.8499 7.1525 40.8705C7.27663 41.0146 7.50419 40.7058 7.62832 40.9734C7.64901 41.0352 7.79382 40.9734 7.81451 40.8087C7.8352 40.5617 8.08345 40.5411 8.24895 40.5C8.39376 40.4588 8.57995 40.4382 8.74545 40.5206C8.86958 40.5823 8.89027 40.5 8.89027 40.4176C8.89027 40.3353 8.89027 40.2324 8.89027 40.1295C8.78683 40.0677 8.72477 39.8207 8.64201 39.9442C8.51789 40.0883 8.22826 40.0677 8.24895 40.3353C8.12482 40.2735 8.02138 40.2118 7.89726 40.1706C8.14551 39.9648 8.43514 39.8413 8.72476 39.8001C9.01439 39.7589 8.86958 39.9854 8.89027 40.1089V40.1295C9.05577 40.1089 9.17989 40.0059 9.17989 39.8413C9.17989 39.6766 9.15921 39.4913 9.42815 39.6148C9.49021 39.6354 9.63502 39.6148 9.63502 39.4707C9.63502 39.2443 9.77984 39.1414 9.98671 39.1414C10.1522 39.1414 10.2143 39.0796 10.1729 38.9355C10.0902 38.6062 10.3177 38.7503 10.4832 38.7297C10.3384 38.9973 10.235 39.2443 10.0074 39.409C9.92465 39.4913 9.86259 39.5943 9.82121 39.6972C9.80052 39.7589 9.80052 39.8824 9.94534 39.8207C10.1315 39.7178 10.3798 39.656 10.5246 39.4913C10.7935 39.1826 11.1245 38.9561 11.4348 38.6885C11.7865 38.3798 12.3037 38.1328 12.3658 37.6387C12.4485 37.1447 12.7382 37.1859 13.0692 37.1447C13.1519 37.1241 13.214 37.0829 13.2967 37.0624C13.0899 37.0624 12.9657 36.9389 12.9037 36.7536C12.883 36.7124 12.9244 36.6507 12.945 36.6301C13.0692 36.5889 13.0485 36.8153 13.1933 36.7742C13.214 36.5066 13.214 36.5066 13.545 36.5272C13.4829 36.6095 13.3588 36.6918 13.5243 36.7948C13.6277 36.8565 13.7312 36.9183 13.8553 36.8359C13.9587 36.7536 14.0415 36.7742 14.0829 36.9183C14.4346 36.6712 14.3311 36.1978 14.5587 35.889C14.8483 36.1772 14.8483 36.1566 15.0552 35.7861C15.1379 35.642 15.1173 35.4568 15.3034 35.3538C16.0482 34.9216 16.7516 34.4687 17.5584 34.1599C17.7446 34.0776 17.9515 34.0159 17.7653 33.7483C17.7239 33.7071 17.7446 33.563 17.848 33.6042C18.2618 33.7688 18.4893 33.4189 18.779 33.2542C19.3375 32.8837 19.7513 32.3691 20.1444 31.8545C20.2271 31.7516 20.3305 31.6075 20.496 31.731C20.7236 31.9162 20.8477 31.7721 20.9926 31.6075C21.2615 31.2987 21.2408 30.8664 21.5097 30.5782C21.6546 30.64 21.758 31.134 21.9442 30.5988C21.9442 30.5782 21.9856 30.5576 22.0269 30.5371C22.7303 30.0842 23.1648 29.4667 23.1441 28.6227C23.1441 28.5198 23.1441 28.4374 23.2268 28.3757C23.2682 28.3345 23.3303 28.3551 23.3509 28.3963C23.3923 28.4786 23.4958 28.6227 23.413 28.6845C23.1234 28.9109 23.4958 29.0756 23.4337 29.2814C23.5164 29.0962 23.4751 28.808 23.7233 28.7874C24.1991 28.7668 24.1785 28.3963 24.2405 28.1287C24.2819 27.8817 24.4681 27.6141 24.6956 27.6758C24.8611 27.717 24.8405 27.6346 24.8818 27.5523C25.1715 27.12 25.4404 26.6672 25.7093 26.2349C26.33 25.1851 26.5989 24.0324 26.4748 22.8179C26.4748 22.7561 26.4748 22.6738 26.392 22.6944C25.9576 22.7973 26.2886 22.4474 26.1852 22.365C26.3713 22.1592 26.2265 21.9739 26.1231 21.7886C25.9162 21.4387 25.6059 21.2329 25.2749 21.027C25.1715 20.9653 25.0473 20.8829 25.1301 20.7594C25.2956 20.4712 25.2749 20.1419 25.337 19.8331C25.3577 19.7714 25.3783 19.6479 25.2542 19.6479C25.1508 19.6273 25.0887 19.689 25.0473 19.792C25.006 19.936 24.9232 20.0801 24.8611 20.2036C24.8198 20.286 24.7991 20.4095 24.6956 20.3889C24.5715 20.3683 24.5095 20.286 24.4888 20.1419C24.4681 19.9772 24.406 19.8125 24.3646 19.6479C24.4888 19.689 24.5715 19.7302 24.6543 19.8125C24.6956 19.8537 24.7991 19.8743 24.8405 19.792C24.9646 19.5655 24.6129 19.3185 24.8198 19.0921C24.6129 19.0509 24.3853 19.2979 24.2198 19.0097C24.2198 19.0097 24.1785 19.0303 24.1578 19.0303C23.8888 19.2568 23.8888 19.2773 23.6199 19.0715C23.5371 19.0097 23.4751 18.9686 23.3716 19.0303C23.2475 19.0921 23.1441 19.0509 23.0199 18.9892C22.7717 18.8656 22.7717 18.5363 22.4821 18.454C22.6269 18.3716 22.751 18.5363 22.7924 18.3716C22.8131 18.2687 22.6889 18.1658 22.6062 18.1452C22.4407 18.104 22.3786 18.2687 22.3166 18.3716C22.1097 18.8039 21.6132 18.8862 21.2408 18.5569C21.3236 18.5157 21.3856 18.454 21.4477 18.454C21.5718 18.454 21.6132 18.351 21.6132 18.2687C21.6132 18.1452 21.4891 18.1658 21.3856 18.1658C21.1374 18.1246 20.9305 18.2275 20.7236 18.3099C20.6822 18.3305 20.6615 18.351 20.6409 18.3922C20.496 18.5363 20.3512 18.6186 20.1237 18.4951C20.0409 18.454 19.8961 18.4334 19.8134 18.4745C19.5237 18.598 19.3582 18.4951 19.2134 18.2275C19.1514 18.1246 19.0272 18.0423 19.1927 17.9188C19.2962 17.857 19.2341 17.8158 19.1514 17.7953C19.0893 17.7747 18.8824 17.7129 18.8203 17.7335C18.6962 17.7747 18.5721 17.7953 18.4273 17.7541C18.2825 17.7129 18.0963 17.6306 17.9515 17.9393C17.848 18.1452 17.4343 18.0629 17.1446 17.9188C17.5377 17.7747 17.9101 17.5688 18.3238 17.6512C18.448 17.6717 18.4893 17.61 18.4893 17.4865C18.4893 17.363 18.4066 17.363 18.3238 17.3836C18.1997 17.3836 18.0963 17.5071 17.9722 17.4247C18.0549 17.363 18.1377 17.3424 18.2204 17.3012C18.3238 17.2601 18.4893 17.2395 18.51 17.0748C18.51 17.0542 18.4893 16.9925 18.4893 16.9719C18.3445 16.9513 18.2411 17.0336 18.1583 17.116C18.0342 17.3012 17.8687 17.1983 17.7446 17.1365C17.7032 17.116 17.7446 16.9513 17.7239 16.8484C17.7032 16.7866 17.8894 16.8072 17.7653 16.7249C17.7239 16.7043 17.6205 16.6837 17.5791 16.766C17.5584 16.8278 17.5584 16.8895 17.5584 16.9719C17.2895 16.6425 17.2688 16.6425 17.0205 16.9307C16.9378 17.0336 16.855 17.1777 16.6688 17.116C16.6688 17.0336 16.8343 16.9719 16.7516 16.8895C16.6895 16.8484 16.524 16.8278 16.4826 16.8689C16.3171 17.0542 16.0068 17.0954 15.9241 17.363C15.9034 17.4659 15.862 17.4865 15.7586 17.5071C15.5517 17.5482 15.3655 17.3218 15.1586 17.4865C14.9104 17.0954 14.7449 17.5071 14.7035 17.5894C14.6001 17.7953 14.6001 17.5894 14.5794 17.5688C14.4759 17.3836 14.6001 17.2395 14.7242 17.1571C14.8483 17.0748 14.8276 16.9925 14.8069 16.8895C14.7863 16.8484 14.7449 16.8072 14.7035 16.8072C14.5794 16.8072 14.5794 16.9307 14.538 17.013C14.4759 17.1571 14.4759 17.3012 14.3518 17.4247C14.207 17.1983 13.8967 17.1983 13.7105 17.0336C13.8346 16.8484 13.9587 17.0542 14.0622 17.013C14.1449 16.9925 14.2277 16.9719 14.2277 16.8689C14.2277 16.766 14.1242 16.8072 14.0622 16.8072C13.9381 16.8072 13.7932 16.8072 13.6277 16.8072C13.7312 16.6631 13.8346 16.6425 13.9587 16.6631C13.9381 16.4984 14.0001 16.3543 14.0622 16.1691C14.1242 16.3749 14.1036 16.519 13.9587 16.6425V16.6631C14.1242 16.8278 14.2484 16.6631 14.3932 16.6219C14.4966 16.6013 14.6001 16.4367 14.6828 16.5808C14.7656 16.7249 14.8069 16.6837 14.8897 16.6013C14.9724 16.519 15.0552 16.4573 15.1379 16.3749C15.0345 15.8603 14.869 16.3543 14.7449 16.3338C14.6828 15.9426 14.3932 16.0044 14.1036 16.0456C14.0208 15.9426 14.2484 15.9632 14.1656 15.8603C14.1036 15.7986 14.0622 15.7986 13.9794 15.8397C13.8553 15.9221 13.7519 15.8191 13.6484 15.7574C13.5243 15.6956 13.3381 15.6956 13.3174 15.7368C13.2761 16.0456 12.9037 15.9838 12.8002 16.2102C12.7589 16.272 12.6968 16.3749 12.5727 16.3338C12.4485 16.272 12.4072 16.1897 12.4072 16.0662C12.0762 16.2102 11.7452 16.1279 11.4142 16.0662C11.3314 16.0456 11.1866 16.1073 11.2073 15.9426C11.228 15.8397 11.1038 15.675 11.3314 15.6339C11.4969 15.5927 11.5797 15.4486 11.6831 15.3045C11.7038 15.3457 11.7245 15.3869 11.7659 15.428C11.8279 15.4898 11.89 15.6339 11.9727 15.531C12.0762 15.4486 11.9314 15.3869 11.89 15.3251C11.6831 15.0163 11.4762 15.2016 11.3107 15.3457C11.1866 15.4486 11.1038 15.4692 11.0211 15.3869C10.959 15.3045 11.0211 15.2016 11.1245 15.1604C11.2073 15.1193 11.29 15.0781 11.2693 14.9958C11.2487 14.8928 11.1038 14.9752 11.0625 14.9546C10.897 14.8517 10.5867 14.9134 10.6073 14.687C10.6487 14.2959 10.5867 14.09 10.0695 14.1724C10.2557 14.0489 10.4212 14.1518 10.5246 14.0283C10.3591 13.9254 10.4625 13.6783 10.3591 13.4931C10.1522 13.1226 10.5039 13.1843 10.6901 13.1432C10.7108 13.1432 10.7315 13.102 10.7315 13.0814C10.7728 12.6285 11.2073 12.4021 11.3935 12.0316C11.4762 11.8669 11.621 11.6817 11.3314 11.5376C11.4555 11.517 11.559 11.517 11.6417 11.4964C12.0555 11.3523 12.3658 11.0641 12.5934 10.673C12.6761 10.5083 12.8623 10.3231 12.9864 10.426C13.1312 10.5495 13.214 10.4877 13.2761 10.426C13.6691 10.1378 14.0622 9.8908 14.5173 9.70554C14.9104 9.54086 15.1173 9.12917 15.4069 8.8204C15.4896 8.88216 15.3448 9.10859 15.5724 9.00566C15.8413 8.88216 16.1723 8.75865 16.2965 8.49105C16.4206 8.18228 16.793 8.30579 16.9378 8.05878C16.9378 8.03819 17.0619 8.05877 17.0619 8.07936C17.124 8.22345 17.2067 8.14111 17.3101 8.14111C17.786 8.12053 17.9515 7.75001 18.1583 7.42066C18.179 7.17364 18.3652 7.05013 18.51 6.90604C18.5514 6.88546 18.6342 6.86487 18.6755 6.88546C18.7376 6.90604 18.7376 6.98838 18.7169 7.05013C18.5928 7.25598 18.3652 7.31773 18.179 7.44124C18.179 7.44124 18.179 7.44124 18.1583 7.46182C18.179 7.50299 18.0549 7.6265 18.2618 7.6265C18.4687 7.6265 18.5721 7.6265 18.6755 7.44124C18.7376 7.33832 18.8617 7.11189 18.9445 7.44124C18.9858 7.58533 19.0686 7.52358 19.11 7.46182C19.2341 7.25598 19.3789 6.98838 19.2548 6.78254C19.11 6.55611 19.2755 6.53552 19.3789 6.49435C19.5444 6.4326 19.7513 6.39143 19.8547 6.22675C19.7513 6.14442 19.6065 6.22675 19.4824 6.10325C19.772 5.95915 19.8134 5.69156 19.8754 5.42396C19.8961 5.3622 19.834 5.15636 20.0202 5.21811C20.1857 5.25928 20.0616 5.40337 20.0409 5.48571C19.9789 5.67097 19.9168 5.87682 20.103 5.97974C20.2685 6.08266 20.3512 6.20617 20.3512 6.39143C20.7236 6.35026 20.765 5.93857 21.0132 5.83565C21.5097 5.65039 21.6339 5.03285 22.1717 4.90934C22.1924 4.90934 22.2131 4.88876 22.2338 4.88876C22.3579 4.60058 22.3579 4.60058 22.6062 4.80642C22.751 4.39473 22.8751 4.1683 23.4958 4.25064C23.5992 4.27122 23.6199 4.23006 23.6406 4.1683C23.7647 3.92129 23.9716 3.69486 24.0336 3.42726C24.1164 3.11849 24.2405 3.22141 24.406 3.30375C24.4888 3.34492 24.4888 3.61252 24.6336 3.40668C24.7163 3.28317 24.737 3.11849 24.6129 2.99498C24.5715 2.95382 24.5095 2.93323 24.4681 2.89206C24.4267 2.83031 24.3026 2.80972 24.3646 2.7068C24.406 2.62446 24.4681 2.54213 24.5922 2.56271C24.7163 2.58329 24.6543 2.68622 24.675 2.76855C24.7163 3.01557 24.9439 3.03615 25.0887 3.03615C25.2542 3.03615 25.1508 2.83031 25.1715 2.7068C25.1715 2.54213 25.006 2.37745 25.2128 2.25394C25.3577 2.33628 25.1094 2.58329 25.3783 2.62446C25.6059 2.64505 25.668 2.48037 25.7093 2.29511C25.73 2.21277 25.7714 2.13043 25.8128 2.0481C25.8335 2.02751 25.8128 1.88342 25.8955 2.00693C25.9576 2.08927 26.061 2.15102 26.1231 2.13043C26.2265 2.06868 26.1852 1.98634 26.0817 1.92459C26.0197 1.88342 26.1024 1.88342 26.1231 1.88342C26.3507 1.82167 26.5162 1.59524 26.7437 1.57465C27.0333 1.55407 27.1989 1.32764 27.4471 1.2453C27.5919 1.10121 27.5712 1.03946 27.5712 0.977702ZM4.1321 42.4143C4.02867 42.5378 3.90454 42.5996 3.71835 42.5996C3.86316 42.5584 3.88385 42.3732 3.98729 42.2908C4.02867 42.2497 4.04935 42.1879 4.1321 42.2497C4.17348 42.2908 4.19417 42.3526 4.1321 42.4143ZM5.72505 41.591C5.70437 41.6115 5.6423 41.6115 5.62162 41.591C5.58024 41.4263 5.60093 41.2204 5.41474 41.1381C5.4768 41.0352 5.4768 40.8911 5.6423 40.8087C5.66299 41.0558 5.68368 41.2616 5.76643 41.4674C5.8078 41.5292 5.74574 41.5704 5.72505 41.591ZM9.65571 39.0796C9.55227 39.1002 9.59365 39.0179 9.59365 38.9767C9.59365 38.915 9.59365 38.8532 9.6764 38.8738C9.71777 38.8738 9.73846 38.9561 9.77984 38.9973C9.77984 39.0796 9.69709 39.0796 9.65571 39.0796ZM15.4483 32.9249C15.3448 33.0484 15.2828 32.7808 15.1793 32.6984C15.4069 32.5749 15.6551 32.5749 15.9654 32.6161C15.7586 32.7602 15.5931 32.7808 15.4483 32.9249ZM16.2551 32.1015C16.0068 32.225 16.0068 32.225 15.8827 32.4514C15.6344 32.2456 15.7379 32.0809 15.9654 31.9986C16.2344 31.8956 16.2551 31.6898 16.2344 31.4634C16.193 31.1958 16.2758 30.9488 16.524 30.7635C16.2758 30.9899 16.5861 31.1752 16.6068 31.381C16.6275 31.5869 16.462 31.9986 16.2551 32.1015ZM16.8343 31.381C16.7516 31.2369 16.8964 31.2369 16.9998 31.2164C16.9585 31.2781 16.8964 31.3193 16.8343 31.381ZM16.4413 18.0011C16.462 17.9599 16.462 17.8982 16.4826 17.8158C16.6481 17.8776 16.793 17.9188 16.9378 18.0011C16.8136 18.0629 16.7309 18.1246 16.6481 18.1658C16.5654 18.2069 16.524 18.3922 16.3999 18.2893C16.3378 18.2275 16.3792 18.104 16.4413 18.0011ZM16.0689 17.7541C16.1723 17.7953 16.2551 17.857 16.2137 17.9393C16.1516 18.0628 16.1723 18.1658 16.1516 18.2893C15.9861 18.2481 15.9241 18.104 15.8827 17.9599C15.862 17.8776 16.0068 17.8158 16.0689 17.7541ZM16.0689 18.4334C15.7172 18.6392 15.4896 18.5157 15.2621 18.3716C15.3862 18.3099 15.5103 18.351 15.6758 18.3922C15.5724 18.1864 15.3655 18.0629 15.2207 18.1658C14.9724 18.351 15.0552 18.104 14.9311 18.0217C15.2414 17.9805 15.4483 18.1246 15.6551 18.1246C15.9654 18.104 15.7586 18.454 16.0689 18.4334ZM15.7172 17.857C15.7172 17.8982 15.7172 17.9188 15.6965 17.9599C15.5724 17.9393 15.4483 17.8982 15.2414 17.857C15.4689 17.8364 15.5931 17.7953 15.7172 17.857ZM15.1793 17.6717C15.2621 17.7747 15.1379 17.7335 15.0966 17.7541C15.0552 17.7541 15.0345 17.7541 14.9104 17.7335C15.0552 17.7129 15.0966 17.5894 15.1793 17.6717ZM13.9794 17.9805C13.8967 17.9805 13.8346 17.9393 13.8139 17.8776C13.8139 17.8364 13.8553 17.7747 13.9381 17.7747C14.0001 17.7953 14.0415 17.8364 14.0622 17.8982C14.0829 17.9599 14.0415 17.9599 13.9794 17.9805ZM14.1449 17.6512C14.1656 17.6512 14.1656 17.6512 14.1863 17.6512C14.1863 17.6512 14.1656 17.6512 14.1449 17.6512C14.0415 17.6512 13.8346 17.5071 13.7312 17.8158C13.7312 17.116 14.0415 17.5894 14.1449 17.6512ZM13.6071 16.025C13.6898 16.025 13.7312 16.0662 13.7312 16.1485C13.7312 16.2514 13.6898 16.3543 13.5864 16.3338C13.5243 16.3338 13.4209 16.2514 13.4209 16.1897C13.4002 16.0662 13.5243 16.0662 13.6071 16.025ZM10.7728 8.59397C10.7315 8.59397 10.6487 8.59397 10.6694 8.53222C10.7108 8.4293 10.7728 8.34696 10.8556 8.26462C10.8556 8.26462 10.9383 8.30579 10.9797 8.32637C10.897 8.44988 10.9177 8.59397 10.7728 8.59397ZM12.5106 7.56475C12.4279 7.58533 12.3865 7.54416 12.4485 7.46182C12.4692 7.44124 12.4899 7.40007 12.552 7.29715C12.5106 7.44124 12.5313 7.54416 12.5106 7.56475ZM23.4958 3.83895C23.4544 3.85953 23.3923 3.83895 23.3303 3.81837C23.3509 3.73603 23.3716 3.6331 23.4958 3.57135C23.4544 3.67427 23.6199 3.75661 23.4958 3.83895Z" fill="#4271B5"/>
</svg>
