<svg xmlns="http://www.w3.org/2000/svg" width="880" height="880" version="1.0" viewBox="0 0 660 660"><path d="M140 22c-26.7 5.1-49.5 16.3-71.5 35.4-12 10.4-27.6 34.8-33.3 52.1-5.1 15.2-6 25.1-6.4 64.7-.2 27-.2 27.6-2.1 26.3-2.5-1.7-5.3-.9-3.6 1.1.9 1.1.9 1.4 0 1.4-.7 0-.9.6-.6 1.2.4.7-.1.4-1.1-.7-1.6-2-1.6-2-1.1.2.3 1.5.1 2-.9 1.6-.7-.2-1-1.1-.7-1.8.9-2.5-.8-3.8-2.4-1.8-.8 1-1.3 1.3-1 .8.2-.6.7-1.9 1.1-3 .7-2 .7-2 2.2 0 1.3 1.7 1.6 1.8 2.4.5.7-1.1.5-1.6-.5-1.8-.8-.2-1.5-.8-1.5-1.3s-1-.4-2.2.3c-1.3.7-3.4 1.3-4.7 1.5-2.3.2-2.3.2-.5-1.6 1.1-1 2.9-1.7 4.1-1.5 1.7.3 2.1.1 1.6-1.1-.3-.9-1.2-1.4-1.9-1.1-.8.3-1.1 0-.7-1 .3-.7 1-1.4 1.6-1.4 2.2 0-.4-1.3-3.3-1.6-2.2-.3-3 .1-3 1.2 0 1.2.4 1.3 2.1.4 1.1-.7 2.3-.9 2.7-.6.3.3 0 .6-.6.6-.7 0-1.2.6-1.2 1.3 0 2-2.1 3.6-3.7 3-1.2-.5-1.2-.7-.1-1.4 1-.6 1-1.1.1-2-.6-.6-.9-1.7-.7-2.4.3-.7.1-1.6-.5-2-.6-.3-1.1-.1-1.1.5s-.5.8-1.1.5c-.6-.4-.8-1.4-.5-2.2.4-1.1.2-1.3-.9-.9-.9.3-1.5 0-1.5-1 0-.8.5-1.2 1-.9.6.4.5-.5-.2-1.9-1.3-3.1-3.4-3.4-3.4-.7 0 1.1.4 1.7.8 1.5.4-.3.8-.1.8.5 0 .5-.6 1.1-1.2 1.4-1 .3-1 .7.1 2 .7.9 1.8 1.4 2.4 1 .6-.4.7-.1.3.6-.5.7-1.4 1-2.2.7-.8-.3-1.4-.1-1.4.3 0 .5.6 1.2 1.3 1.4.9.4.9.6 0 .6C.3 191 0 207.1 0 264v73h42.6l2.2-9.2c5.9-24.3 21.4-43.2 44.7-54.8 14-7 39.9-13 81-18.9 66-9.5 128.9-13.3 184.9-11.2 28.2 1.1 60.7 3 76.1 4.6 2.8.3 12.2 1.2 21 2 30.9 3 70.2 9.3 94.5 15.2 18.8 4.5 33.4 12.7 46.1 26 11.8 12.2 17.5 22.9 20.6 38.5l1.6 7.8H660v-77c0-48.9-.4-77.1-1-77.5-.6-.3-1-1.1-1-1.6 0-.6.4-.8.8-.5.4.2.9-1.2 1-3.2.1-3.3 0-3.4-1-1.5-1 2.1-4.8 3.9-4.8 2.2 0-.5.7-.9 1.6-.9 2.2 0 .1-2.6-2.7-3.3-1.5-.4-1.8-.2-1 .7 1.2 1.4 1 3.3-.8 6.5-1.1 1.9-1.1 2.2.1 1.8.7-.2 1.2-.9 1.1-1.5-.1-.5.9-1.2 2.2-1.5 1.4-.2 2.5 0 2.5.4 0 .5-.4.9-.9.9s-1.7.8-2.7 1.7c-.9 1-2.2 1.8-2.8 1.9-.6.1-1.9.5-2.8.9-1.1.4-1.8.3-1.8-.5 0-.6-.4-.8-1-.5-.5.3-1 1.1-1 1.6 0 .6.5.7 1 .4.6-.3 1-.1 1 .6 0 .8.4.8 1.5-.1 1.3-1.1 1.4-1 .9.6-.7 1.9-.7 1.9 1.4 0 1.2-1.1 2.2-1.5 2.2-.9 0 1.3-5 4.9-8.1 5.6-1.5.4-3.7 1.6-5 2.7-2.2 2-2.3 2-.2 1.1 2.9-1.4 3.3-1.4 3.3.5 0 .8.5 1.2 1 .9.8-.5.7-1.1-.1-2.1-.9-1.1-.7-1.4 1-1.4 1.1 0 2.1.5 2.1 1.1 0 .5.6.7 1.3.3.7-.4.9-.3.4.2s-1.2.9-1.5.9c-1.7 0-5.3 3.3-4.3 4 .6.3 1.1 1.4 1.1 2.3 0 1.3-.2 1.4-.8.4-.5-.7-1.6-1-2.5-.6-1.1.4-1.9 0-2.3-1-.3-.9-1-1.3-1.6-1-.5.4-.5 1.1.1 1.8.8.9.4 1.9-1.5 3.5-1.8 1.6-2.4 2.9-2 4.4.5 2.1.5 2.1-.9.3-1.3-1.7-1.3-2.2.3-3.9 1.6-1.9 1.6-2 0-1.4-1.6.5-1.7-1.6-1.8-28.6 0-16.1-.3-31-.5-33.2-.2-2.2-.6-7.3-1-11.2-1.1-12.3-5.5-26.3-12.9-41.4-9.6-19.3-23.6-34.7-44.1-48.6-15.5-10.5-38.8-18.9-59-21.2-6-.7-67.9-1-186-1-166.1.1-177.6.2-186.5 1.9zm136.1 24.4c2.8 1.9 7.6 9 20.3 30.2 9.1 15.2 16.6 28.1 16.6 28.6 0 1.1-10.9 18.7-17.4 28.1-2.4 3.4-13.2 20.4-24.1 37.7-28.7 45.8-33.5 53-35.9 53.4-1.2.3-11.4 1.4-22.8 2.6-21.9 2.2-62.5 7.8-76.8 10.5-44 8.4-64 17.2-85.7 37.8-5.9 5.6-7.6 6.8-8.4 5.6-1.4-2.2-1.2-2.7 3.2-10.8C50.9 259.4 88.2 196 101 175c5.9-9.6 14.4-23.8 18.9-31.5 9.6-16.2 11.2-18.1 16.6-20.6 5.1-2.3 7.9-2.3 13.1 0 5 2.3 6.8 4.7 21.2 29.9l11.1 19.4 2.8-4.7c1.5-2.6 9.3-15.2 17.2-27.9 12.6-20.1 21.4-34.4 50.3-81.9 3.7-6.1 7.3-10.6 9.2-11.8 4.4-2.7 10.3-2.5 14.7.5zM484 78.6c2.1 2.1 10.7 14.7 19.2 27.9s18.9 29.4 23.2 36c4.3 6.6 13.4 20.8 20.2 31.5 6.9 10.7 16.1 25.1 20.5 32 34.3 53.4 46.9 73.4 46.4 73.8-.2.3-3.7-2.5-7.6-6.2-27.3-25.3-52.9-33.8-127.7-42.6-9.7-1.2-18-2.4-18.5-2.9-.8-.8-25.1-39.4-37.4-59.4l-8.5-13.7 7-11.3c17-27.5 35.3-56.6 38.5-61.3 4.5-6.5 8.5-8.6 15.5-8.1 4.7.3 5.8.9 9.2 4.3zm-128.2 29.1c3.7 2.7 6.8 7.2 21.1 30 6.9 10.9 16 25.2 20.3 31.9 4.3 6.6 7.8 12.5 7.8 13s6.3 10.3 13.9 21.9c7.7 11.5 13.9 21 13.8 21.1-.1 0-7.4-.5-16.2-1.2-39.7-3.1-109.8-4.4-140.3-2.6-8.5.5-11.1.4-10.8-.5.3-.7 5.4-9 11.4-18.5 6.1-9.5 20.2-31.9 31.5-49.8 28.1-44.6 27.7-44 31.7-46.2 4.4-2.4 12-2 15.8.9zM656.5 186c-.3.5-1.2 1-1.8 1-.7 0-.6-.4.3-1 1.9-1.2 2.3-1.2 1.5 0zm-651 5c-.3.5-1.2 1-1.8 1-.7 0-.6-.4.3-1 1.9-1.2 2.3-1.2 1.5 0zm640.5 8.4c0 .3-.4.8-1 1.1-.5.3-1 .1-1-.4 0-.6.5-1.1 1-1.1.6 0 1 .2 1 .4zm-618.6 3.4c.3.5-.1.9-.9.9s-1.5-.4-1.5-.9c0-.4.4-.8.9-.8.6 0 1.2.4 1.5.8zm-.1 5.6c-.3.4 0 1.1.6 1.5.9.6.7 1.3-.6 2.7-1 1.1-1.5 1.5-1 1 1.2-1.6.8-3.6-.8-3.6s-1.9-.9-.9-3.4c.5-1.2.9-1.3 1.9-.3.7.7 1.1 1.6.8 2.1zm-10-.7c-.7.2-1.9.2-2.5 0-.7-.3-.2-.5 1.2-.5s1.9.2 1.3.5zm.7 3.3c0 .5-.5 1-1.1 1-.5 0-.7-.5-.4-1 .3-.6.8-1 1.1-1 .2 0 .4.4.4 1zM654.6 161.5c.4.8 1.1 1.5 1.6 1.5.6 0 .5-.6-.2-1.5-.7-.8-1.4-1.5-1.6-1.5-.2 0-.1.7.2 1.5z"/><path d="M655 166.6c0 .8.5 1.2 1 .9.6-.4.8-1.1.5-1.6-.9-1.4-1.5-1.1-1.5.7zM1.6 172.3c.3 1 .9 1.5 1.2 1.2.3-.3 0-1.1-.7-1.8-1-.9-1.1-.8-.5.6zM657.7 172.1c.7.7 1.5 1 1.8.7.3-.3-.2-.9-1.2-1.2-1.4-.6-1.5-.5-.6.5zM3.2 177.9c.4 1.3 1.8 1.6 1.9.4 0-.4-.5-.9-1.1-1.2-.7-.2-1.1.2-.8.8zM8.5 180c.3.5 1.1 1 1.6 1 .6 0 .7-.5.4-1-.3-.6-1.1-1-1.6-1-.6 0-.7.4-.4 1zM647.5 180c.3.5.8 1 1.1 1 .2 0 .4-.5.4-1 0-.6-.5-1-1.1-1-.5 0-.7.4-.4 1zM646 182c.6 1.1 1.6 2 2.2 2 .6 0 .3-.9-.7-2s-2-2-2.2-2c-.2 0 .1.9.7 2zM6 181.7c0 .6.5 1.5 1 1.8.6.4.8 1.1.5 1.6-1 1.5 0 1 2.5-1.1 1.3-1.1 1.8-2 1.2-2-.6 0-1.4.5-1.7 1.1-.5.6-1.2.4-2.1-.8-.7-1-1.4-1.3-1.4-.6zM16.1 182.6c0 1.1.3 1.4.6.6.3-.7.2-1.6-.1-1.9-.3-.4-.6.2-.5 1.3zM9 187c0 .5.7.7 1.5.4.8-.4 1.5-.8 1.5-1 0-.2-.7-.4-1.5-.4s-1.5.4-1.5 1zM22.2 191.2c-.1 2.6.1 3 .9 1.5.6-1 .6-2.3.1-3.3-.7-1.2-.9-.8-1 1.8zM19.4 190.9c.4.5 0 1.1-.6 1.4-1 .4-.9.8.2 2 1.4 1.5 1.5 1.3 1.6-1.3.1-1.7-.3-3-.8-3s-.7.4-.4.9zM635.5 193c-.3.5-.1 1 .4 1 .6 0 1.1-.5 1.1-1 0-.6-.2-1-.4-1-.3 0-.8.4-1.1 1zM24 196c0 .5.7.7 1.5.4.8-.4 1.5-.8 1.5-1 0-.2-.7-.4-1.5-.4s-1.5.4-1.5 1zM640 198c0 .5-.7.7-1.6.3-1.4-.5-1.5-.3-.4 1.6.6 1.3 1.4 2 1.8 1.7.8-.8 1.3-4.6.7-4.6-.3 0-.5.4-.5 1zM631.4 201.1c-.3.6.1 1.8 1 2.7 1.3 1.3 1.8 1.4 2.8.3.7-.7.9-1.2.3-1.1-2 .4-3.5 0-3.5-1.1 0-.5.5-.7 1-.4.6.3 1 .1 1-.4 0-1.4-1.7-1.4-2.6 0zM286.5 267.7c-59.8 2.9-155.3 15.2-178.2 22.9-20.4 6.9-34.3 22.5-37.9 42.2-1.6 9.3-1.9 47.5-.4 60.7 3.3 28.2 20.9 54.2 44 64.8 8.4 3.8 61.7 15.8 90.2 20.2 22.5 3.5 42.4-2.4 56.7-16.6 2.4-2.4 10.2-12.4 17.3-22.1 7.1-9.7 14.7-19.5 16.9-21.8 11.7-12.1 29.3-16.8 46.3-12.4 13.3 3.4 19.3 8.7 38.1 33.9 15.2 20.4 19 24.7 25.9 29.5 10.4 7.1 29.3 11.9 41.5 10.7 14.4-1.6 77.8-14.8 92.2-19.3 22.8-7.2 41.3-29 48.5-57.4 2.5-9.9 3.2-61.7 1-71.4-3.7-15.7-15.1-30.6-29.1-37.8-11.1-5.8-17.2-7.1-72.5-15.3-25.9-3.9-78-8.7-113-10.5-17.4-.9-71.8-1.1-87.5-.3zM232 297.4c0 7.2-4.4 12.3-48.5 57.1-23.6 24-44.2 44.3-45.6 45.1-5.1 2.6-10.2 2.8-15.5.5-9.5-4.3-13.7-10.3-13.7-19.6 0-9.4 2.5-13.3 22.3-34 6.3-6.6 18.4-19.5 26.8-28.7l15.3-16.5 11.2-1.7c12.5-1.9 40.7-5.3 45-5.5 2.4-.1 2.7.2 2.7 3.3zm51.4 26.9c2.2 1.2 4.8 3.4 5.9 4.9 2.7 3.6 3.4 12.5 1.4 16.4-.8 1.6-19.1 20.4-40.7 41.9-39.1 39-42.1 42-38.6 37.7 1.1-1.2 1.5-2.2 1-2.3-.5 0 .2-.5 1.5-1 1.8-.7 2.1-1.2 1.2-2.3-.6-.7-.7-1.7-.3-2.1.4-.5.1-.5-.6-.1s-1 1.2-.7 1.7c.4.5.1.9-.5.9-.8 0-.9-1-.5-3 .4-1.8.3-3-.4-3-.6 0-.8.7-.5 1.5.4.9 0 1.5-1 1.5-.9 0-1.6.4-1.6 1 0 .5-.6 1-1.4 1-2.1 0-1.6-4 .6-5.1 1-.5 1.8-1.4 1.8-2 0-.5-1.2.1-2.6 1.5-2.2 2-2.6 3-2.1 5.8l.6 3.3-1.5-3.3c-.8-1.9-1.9-3-2.5-2.6-.8.4-.7.9.2 1.5 1.2.7 1.2.9 0 .9-.8 0-2-.8-2.7-1.8-.8-1-1.3-1.2-1.4-.5 0 .7-.6 1-1.3.7-.8-.3-2 .2-2.7 1.1-1.1 1.4-1.4 1.4-2.5-.2-1.1-1.5-1.5-1.5-2.9-.4-1.4 1.2-1.6 1.1-1.6-.8 0-1.2-.6-2.1-1.5-2.1-.8 0-1.5.4-1.5.9s-.9 1.1-2 1.4c-1.6.4-1.8.2-1-1.3.5-1 1.5-2.1 2.2-2.3.7-.3.3-.6-.9-.6-1.3-.1-2.2.4-2 1.1.1.7-.3 1.2-.9 1.1-1.3-.3-2.8 4.2-1.9 5.6.2.5-.3.8-1.3.7-1.3-.1-1.7.7-1.9 3.2-.2 4.6-1.1 5.2-1.1.7 0-1.9.7-4.2 1.5-5 .8-.8 1.2-1.9.9-2.3-.3-.5 1.5-2.8 3.9-5.2 2.5-2.4 4.5-4.2 4.6-4 .5 2.9.8 4.3 1.3 4.8.9.8.2-3-.7-4.5-1-1.6 3.8-6.7 5.4-5.7.8.4.9.3.5-.5-.5-.8 5.7-7.8 17.1-19.4 9.8-10 26.1-27 36.2-37.7 10.1-10.7 20.1-20.5 22.4-21.8 5.3-2.9 11.9-2.9 17.1.1zm-97.7 94.2c0 .8-.4 1.2-.9.9-.5-.3-.6-1-.3-1.5.9-1.3 1.2-1.1 1.2.6zm12.4 1.3c-.7.2-1.8-.1-2.3-.6-.8-.8-.4-.9 1.3-.5 1.3.4 1.8.8 1 1.1zm4.2 1.7c-.3.9-.8 1.4-1 1.1-.3-.3-.2-.9.2-1.5.9-1.6 1.5-1.3.8.4z"/><path d="M206.5 410c.3.5.8 1 1.1 1 .2 0 .4-.5.4-1 0-.6-.5-1-1.1-1-.5 0-.7.4-.4 1zM196.6 413.7c-.6 1.4-.5 1.5.5.6.7-.7 1-1.5.7-1.8-.3-.3-.9.2-1.2 1.2zM193.2 415c-1.8 2.9-1.5 3.8.4 1.2.9-1.3 1.4-2.5 1.2-2.7-.2-.2-.9.5-1.6 1.5zM188 415c0 .5.5 1 1 1 .6 0 1-.5 1-1 0-.6-.4-1-1-1-.5 0-1 .4-1 1zM216 418.6c0 .8.5 1.2 1 .9.6-.4.8-1.1.5-1.6-.9-1.4-1.5-1.1-1.5.7z"/><path d="M0 410.5V430h15.3c8.3 0 15.7.4 16.3.8.7.4 2.6 3.8 4.3 7.6 10 22.2 33.7 46.8 55.9 58 2.8 1.4 5.3 3 5.7 3.5.3.6 1.4 4.5 2.5 8.8 4.7 18.2 23.4 48.9 44 71.8 8.7 9.7 23.1 24.4 25.4 26.1 1.1.8 3.8 1.4 5.9 1.4 3.1 0 4.6-.7 7.3-3.4 5.7-5.7 4.4-11.6-4.2-19.6-2.6-2.4-8.5-8.4-13.2-13.4l-8.4-9.1.6-7c.3-3.9 1.5-10.6 2.6-15 2.1-8.1 7.3-20.4 9.1-21.5.5-.4 5.4.4 11 1.6 43.4 9.8 79.1 3.1 102.9-19.3 4.4-4.1 13.8-15.2 21.4-25.2 14.2-18.7 17.3-21.9 23-22.8 6.5-1 9.6 1.6 24.5 20.6 15.8 20.1 27.6 31.9 37.8 38 9.5 5.6 24.1 10.7 34.9 12.2 12.3 1.6 32 .6 49.4-2.5 8-1.4 14.8-2.6 15.2-2.6 1.3 0 6.7 12.6 8.7 20.5 1.1 4.4 2.3 11.6 2.7 16l.6 8-8.2 9c-4.4 4.9-10.5 11.2-13.4 14-6.4 6-8.4 11-6.3 15.2 2.6 4.9 5.5 6.8 10.4 6.8 4.5 0 4.7-.2 16.2-12 31.7-32.8 50.6-60.9 57.1-85 3.3-12.2 3.1-11.9 13-17.1 22-11.6 41.1-31.9 51.6-54.9l3.9-8.5h5.1c2.8 0 10.6-.3 17.2-.7l12.2-.6V391l-22.7.2-22.8.3-.8 7c-2.8 26.2-18.2 51.8-41.6 69.6-9.1 6.8-24.7 14.4-36.1 17.4-10.5 2.8-70.4 15.7-81.4 17.6-10.1 1.7-25.2.6-36.1-2.6-18.5-5.4-24.2-10.1-48.2-39.6-17.9-21.9-22.2-26-30.6-28.8-7.3-2.5-12.5-2.6-19.7-.5-8.9 2.6-13.3 6.6-27.4 24.2-16.8 21.2-23.2 28.4-30.4 34-14.2 11.2-34.4 16-54.7 13.2-5-.7-16.4-2.8-25.5-4.7-9.1-1.8-23-4.7-31-6.4-30.8-6.4-41.4-9.6-52.7-16.1-29.8-17.1-50.3-46.9-53.9-78.6l-.7-6.2H0v19.5z"/><path d="M287.5 539.4c-1.6.7-3.9 2.3-5 3.6-1.9 2.1-2 3.8-2.3 39.1-.2 29.5 0 36.9 1 36.9s1 .2-.1.9-1.1 1.5-.3 3.9c1.3 3.9 6.7 9.6 8.4 8.9.8-.3.6-.6-.5-.6-1-.1-1.5-.6-1.2-1.1.3-.6.2-1-.4-1-.6 0-.8-.7-.5-1.5.4-.8 1-1.3 1.4-1 .4.3 1.3-.2 2-1 1.1-1.3 1-1.4-.6-.9-1 .4-2.4 1.1-3.1 1.6-1.5 1.2-2.3-1.2-1.1-3.5.5-.9.7-2.1.4-2.6-.3-.5.3-1.1 1.4-1.4 1.1-.3 2.2-.1 2.5.3.7 1.1-.5 4-1.6 4-.6 0-.5-1 .1-2.3 1.1-2.1 1-2.1-.4-.3-.9 1.1-1.6 2.3-1.6 2.8 0 1.2 2.8 1 3.5-.2.5-.8 1.2-.7 2.2.2 1.5 1.2 1.5 1.1.2-.9-1.3-2.1-.5-4.7.9-2.8.4.6 1.3 1.1 2 1.3 1 .2 1-.2.2-1.7-1.4-2.8-1.3-4.9.3-2.8.8 1.2 1.6 1.4 2.7.7 1.2-.7 1.2-1 .1-1-.7 0-1.1-.6-.8-1.4.4-1 0-1.2-1.4-.9-1 .3-1.9.1-1.9-.4s1.6-.9 3.5-.9c1.9.1 3.5.4 3.5.8 0 .5-.5.8-1.1.8-.6 0-.9.6-.6 1.2.2.7 0 2.1-.5 3-.6 1.3-.5 1.6.5 1.2.7-.2 2.1-2.2 3-4.2 1.4-3.2 1.7-8.5 1.7-36.9.2-36.8.2-36.6-6.5-39.7-4-1.9-6-2-10-.2zm15.2 71.4c.1 2.7-.1 3.2-.7 1.7-.4-1.1-.6-2.3-.3-2.8.2-.4-.1-.7-.6-.7-.6 0-1.1-.5-1.1-1 0-.6.6-1 1.3-1 .7 0 1.3 1.5 1.4 3.8zm-14.3 4.3c-.3.6 0 1.6.7 2.1 1.1.8 1.1.9-.2.5-.9-.3-2.2 0-2.8.6-.8.8-1.1.8-1.1-.2 0-.7-.4-.9-1-.6-.6.3-.7-.1-.3-1 .4-1.1.8-1.3 1.3-.5s1.1.6 2-.5c1.4-1.7 2.4-2 1.4-.4zm4.3 1.9c-.1 1.1-.5 2-1 2s-.7-.6-.4-1.4c.3-.8.1-1.7-.6-2-.7-.2-.5-.5.5-.5 1.1-.1 1.6.6 1.5 1.9zM362.3 538.7c-1.2.2-3.6 2-5.3 3.9l-3 3.5v39.6c0 37.9.1 39.7 2 42.8 5.2 8.4 17.4 6.5 21.1-3.2.5-1.3.9-19.7.9-40.7 0-37.8 0-38.4-2.2-41.1-2.1-2.7-7.6-5.6-10-5.4-.7.1-2.3.4-3.5.6zM233.2 554.6c-5.9 3-6.2 4.6-6.1 31.6 0 29.4.5 33.2 4.8 37 5.5 4.9 14.3 2.9 17.8-4 1.6-3.2 1.8-6.9 2.1-28.7.4-26.7-.1-30.5-4.2-34.4-3.3-3.1-10-3.7-14.4-1.5zM413.1 554.3c-1.3.6-3.4 2.5-4.5 4-2 2.7-2.1 4-2.1 31.2v28.3l3.1 3.9c2.7 3.3 3.7 3.8 7.8 4.1 5.5.4 8.7-1.3 11.6-6.1 1.9-3 2-5.2 2-31.3v-28.1l-2.5-2.7c-4.1-4.5-10.5-5.9-15.4-3.3zM302.7 617.7c-.4.3-.7 1.1-.7 1.7 0 .6.5.5 1.2-.2.6-.6.9-1.4.7-1.7-.3-.3-.9-.2-1.2.2zM301.5 623c.3.5.8 1 1.1 1 .2 0 .4-.5.4-1 0-.6-.5-1-1.1-1-.5 0-.7.4-.4 1z"/><path d="M294 623.9c0 .5.5 1.3 1 1.6.6.3 1 .2 1-.4 0-.5-.4-1.3-1-1.6-.5-.3-1-.2-1 .4zM300.6 626.5c.4.8.2 2.1-.2 2.8-.5.7-.1.4.8-.6 1.7-1.9 1.6-3.7-.2-3.7-.5 0-.7.7-.4 1.5zM291.1 630.6c0 1.1.3 1.4.6.6.3-.7.2-1.6-.1-1.9-.3-.4-.6.2-.5 1.3zM294 632c-1.3.8-1.2 1 .3 1 .9 0 1.7-.5 1.7-1 0-1.2-.1-1.2-2 0z"/></svg>