<svg xmlns="http://www.w3.org/2000/svg" xml:space="preserve" width="480" height="420" style="shape-rendering:geometricPrecision;text-rendering:geometricPrecision;image-rendering:optimizeQuality;fill-rule:evenodd;clip-rule:evenodd"><defs><style>.str0,.str2,.str3{stroke:#062845;stroke-width:11.811;stroke-linecap:round;stroke-linejoin:round}.str0,.str2{stroke:#ccc;stroke-width:8.85827}.str2{stroke-width:2.95276}.fil0{fill:none}</style></defs><g id="Layer_x0020_1"><g id="_233640344"><path d="m416 59-7 23m15-8-23-6" class="fil0 str0"/><path d="m90 105-12 45m29-16-45-12" class="fil0" style="stroke:#ccc;stroke-width:5.90551;stroke-linecap:round;stroke-linejoin:round"/><path d="m282 13-12 45m28-16-45-12" class="fil0 str2"/><path d="m59 58-6 23m14-9-23-6" class="fil0 str0"/><path d="m91 332-12 45m28-17-45-12M419 135l-12 45m29-16-45-12" class="fil0 str2"/></g><path d="M401 337c0-29-23-52-52-52-9 0-18 2-25 6-7-40-42-71-84-71-46 0-84 38-84 85 0 7 1 14 2 20-2 0-5-1-7-1-18 0-33 15-33 33s15 32 33 32h198c29 0 52-23 52-52zm-79-12c2-6 3-13 3-20 0-5-1-9-1-14l-2 34z" style="fill:#ccc"/><path id="1" d="M401 337c0-29-23-52-52-52-9 0-18 2-25 6-7-40-42-71-84-71-46 0-84 38-84 85 0 7 1 14 2 20-2 0-5-1-7-1-18 0-33 15-33 33s15 32 33 32h198c29 0 52-23 52-52zm-79-12c2-6 3-13 3-20 0-5-1-9-1-14" class="fil0 str3"/><path d="M277 307c0-21-17-39-38-39-7 0-13 2-19 5-5-30-31-53-62-53-34 0-62 28-62 63 0 5 0 10 2 15h-6c-13 0-24 10-24 24 0 13 11 24 24 24h147c21 0 38-18 38-39zm-58-9c1-5 2-10 2-15 0-3 0-7-1-10l-1 25z" style="fill:#fff"/><path d="M277 307c0-21-17-39-38-39-7 0-13 2-19 5-5-30-31-53-62-53-34 0-62 28-62 63 0 5 0 10 2 15h-6c-13 0-24 10-24 24 0 13 11 24 24 24h147c21 0 38-18 38-39zm-58-9c1-5 2-10 2-15 0-3 0-7-1-10" class="fil0 str3"/><path d="M480 221H0v-11h480z" style="fill:#fff;fill-opacity:0"/><path d="M480 242H0v-11h480v11z" style="fill:#fff;fill-opacity:.101961"/><path d="M480 263H0v-11h480v11z" style="fill:#fff;fill-opacity:.2"/><path d="M480 284H0v-11h480v11z" style="fill:#fff;fill-opacity:.301961"/><path d="M480 305H0v-11h480v11z" style="fill:#fff;fill-opacity:.4"/><path d="M480 326H0v-11h480v11z" style="fill:#fff;fill-opacity:.501961"/><path d="M480 347H0v-11h480v11z" style="fill:#fff;fill-opacity:.6"/><path d="M480 368H0v-11h480v11z" style="fill:#fff;fill-opacity:.701961"/><path d="M480 389H0v-11h480v11z" style="fill:#fff;fill-opacity:.8"/><path d="M480 410H0v-11h480z" style="fill:#fff;fill-opacity:.901961"/></g></svg>