<svg xmlns="http://www.w3.org/2000/svg" xml:space="preserve" width="480" height="420" style="shape-rendering:geometricPrecision;text-rendering:geometricPrecision;image-rendering:optimizeQuality;fill-rule:evenodd;clip-rule:evenodd"><defs><clipPath id="id0" style="clip-rule:nonzero"><path d="M340 0v2c-2 33-17 58-38 74s-49 23-76 23h-1c-20 27-56 44-96 51-43 8-91 5-129-6v-25c36 12 83 16 125 8 37-7 69-22 84-46 2-3 6-6 11-5h6c23 0 45-6 62-19 16-12 27-31 28-56V0h24zm-95 0c2 8 2 15 1 22-1 14-6 25-14 34-8 8-18 14-30 18-8 3-16 4-25 4-17 19-41 31-69 36-35 7-75 6-108 0V90c31 6 70 8 103 1 25-5 46-15 59-32 2-3 6-5 11-5 7 1 15 0 22-3 8-2 15-6 19-11 5-5 8-12 9-20 0-6 0-12-3-20h25zm-93 0c1 3 2 6 2 8 2 12 0 23-6 34s-16 20-30 28h-1C92 83 54 90 0 84V60c50 6 85 1 106-11h1c10-5 17-12 21-18 3-6 4-13 3-18s-3-9-6-13h27z"/></clipPath><style>.fil0,.fil14{fill:#fff;fill-rule:nonzero}.fil3,.fil4{fill:#fff;fill-opacity:0}.fil4{fill-opacity:.101961}.fil5,.fil6{fill:#fff;fill-opacity:.2}.fil6{fill-opacity:.301961}.fil7,.fil8{fill:#fff;fill-opacity:.4}.fil8{fill-opacity:.501961}.fil10,.fil9{fill:#fff;fill-opacity:.6}.fil10{fill-opacity:.701961}.fil11,.fil12{fill:#fff;fill-opacity:.8}.fil12{fill-opacity:.901961}</style></defs><g id="Layer_x0020_1"><g id="_178135520"><path d="M395 337c0-13-5-24-13-33-9-8-20-13-33-13-4 0-8 0-12 1-2 1-5 2-7 3v2c1 3 1 5 1 8s-1 7-1 11c-1 4-1 7-2 11-1 3-4 5-7 4-4-1-5-4-5-7 1-3 2-6 2-10 1-3 1-6 1-9v-7c-1-2-1-4-1-6-3-19-13-35-27-47s-31-19-51-19c-22 0-41 9-55 23-15 14-23 34-23 56v9c1 4 1 7 2 10s-1 6-4 7h-6c-1-1-2-1-3-1-8 0-14 3-19 8s-8 12-8 19 3 14 8 18c5 5 11 8 19 8h198c13 0 24-5 33-13 8-9 13-20 13-33zm-5-41c10 10 17 25 17 41s-7 30-17 41c-11 10-25 17-41 17H151c-11 0-20-4-27-11s-12-17-12-27c0-11 5-20 12-27s16-11 27-11c0-1 0-2-1-3v-11c0-25 10-48 26-64 17-17 39-27 64-27 23 0 43 8 59 22 14 12 24 28 29 47 2-1 4-2 6-2 5-2 10-2 15-2 16 0 30 6 41 17zm-72-4z" class="fil0"/><path d="M395 337c0-13-5-24-13-33-9-8-20-13-33-13-4 0-8 0-12 1-2 1-5 2-7 3v2c1 3 1 5 1 8s-1 7-1 11c-1 4-1 7-2 11-1 3-4 5-7 4-4-1-5-4-5-7 1-3 2-6 2-10 1-3 1-6 1-9v-7c-1-2-1-4-1-6-3-19-13-35-27-47s-31-19-51-19c-22 0-41 9-55 23-15 14-23 34-23 56v9c1 4 1 7 2 10s-1 6-4 7h-6c-1-1-2-1-3-1-8 0-14 3-19 8s-8 12-8 19 3 14 8 18c5 5 11 8 19 8h198c13 0 24-5 33-13 8-9 13-20 13-33z" style="fill:#e6e6e6"/><g id="_178130936"><path d="M271 312c0-9-3-18-9-24-6-5-14-9-23-9-3 0-6 0-8 1-2 0-3 1-5 1 0 1 1 1 1 1v6c0 2 0 5-1 8 0 3-1 6-1 9-1 3-4 5-8 4-3-1-5-4-4-7s1-5 2-7v-12c0-1-1-3-1-4v-1c-2-13-9-25-19-33-10-9-23-14-37-14-15 0-29 6-40 17-10 10-16 24-16 40v7c0 2 1 4 1 7 1 3-1 6-4 7h-3c-1 0-1 0-2-1h-2c-5 0-9 2-13 6-3 3-5 7-5 12s2 10 5 13c4 3 8 5 13 5h147c9 0 17-3 23-9s9-14 9-23z" style="fill:#e6e6e6;fill-rule:nonzero"/><path d="M270 280c8 8 13 19 13 32 0 12-5 23-13 31s-19 13-31 13H92c-8 0-16-3-21-9-5-5-9-12-9-21 0-8 4-15 9-21 5-5 12-8 19-8v-9c0-19 8-36 20-49 12-12 29-20 48-20 17 0 33 6 45 17 10 8 18 20 21 33 1 0 3 0 4-1 3 0 7-1 11-1 12 0 23 5 31 13zm1 32c0-9-3-18-9-24-6-5-14-9-23-9-3 0-6 0-8 1-2 0-3 1-5 1 0 1 1 1 1 1v6c0 2 0 5-1 8 0 3-1 6-1 9-1 3-4 5-8 4-3-1-5-4-4-7s1-5 2-7v-12c0-1-1-3-1-4v-1c-2-13-9-25-19-33-10-9-23-14-37-14-15 0-29 6-40 17-10 10-16 24-16 40v7c0 2 1 4 1 7 1 3-1 6-4 7h-3c-1 0-1 0-2-1h-2c-5 0-9 2-13 6-3 3-5 7-5 12s2 10 5 13c4 3 8 5 13 5h147c9 0 17-3 23-9s9-14 9-23z" class="fil0"/></g></g><path d="M480 221H0v-11h480z" class="fil3"/><g id="_178134824"><path d="M480 242H0v-11h480v11z" class="fil4"/><path d="M480 263H0v-11h480v11z" class="fil5"/><path d="M480 284H0v-11h480v11z" class="fil6"/><path d="M480 305H0v-11h480v11z" class="fil7"/><path d="M480 326H0v-11h480v11z" class="fil8"/><path d="M480 347H0v-11h480v11z" class="fil9"/><path d="M480 368H0v-11h480v11z" class="fil10"/><path d="M480 389H0v-11h480v11z" class="fil11"/></g><path d="M480 410H0v-11h480z" class="fil12"/><g style="clip-path:url(#id0)"><path d="M-300-300h940v755h-940z" style="fill:#fefefe;fill-rule:nonzero"/><g id="Layer_x0020_1_0"><path id="1" d="M395 337c0-13-5-24-13-33-9-8-20-13-33-13-4 0-8 0-12 1-2 1-5 2-7 3v2c1 3 1 5 1 8s-1 7-1 11c-1 4-1 7-2 11-1 3-4 5-7 4-4-1-5-4-5-7 1-3 2-6 2-10 1-3 1-6 1-9v-7c-1-2-1-4-1-6-3-19-13-35-27-47s-31-19-51-19c-22 0-41 9-55 23-15 14-23 34-23 56v9c1 4 1 7 2 10s-1 6-4 7h-6c-1-1-2-1-3-1-8 0-14 3-19 8s-8 12-8 19 3 14 8 18c5 5 11 8 19 8h198c13 0 24-5 33-13 8-9 13-20 13-33zm-5-41c10 10 17 25 17 41s-7 30-17 41c-11 10-25 17-41 17H151c-11 0-20-4-27-11s-12-17-12-27c0-11 5-20 12-27s16-11 27-11c0-1 0-2-1-3v-11c0-25 10-48 26-64 17-17 39-27 64-27 23 0 43 8 59 22 14 12 24 28 29 47 2-1 4-2 6-2 5-2 10-2 15-2 16 0 30 6 41 17zm-72-4z" class="fil14"/><path d="M395 337c0-13-5-24-13-33-9-8-20-13-33-13-4 0-8 0-12 1-2 1-5 2-7 3v2c1 3 1 5 1 8s-1 7-1 11c-1 4-1 7-2 11-1 3-4 5-7 4-4-1-5-4-5-7 1-3 2-6 2-10 1-3 1-6 1-9v-7c-1-2-1-4-1-6-3-19-13-35-27-47s-31-19-51-19c-22 0-41 9-55 23-15 14-23 34-23 56v9c1 4 1 7 2 10s-1 6-4 7h-6c-1-1-2-1-3-1-8 0-14 3-19 8s-8 12-8 19 3 14 8 18c5 5 11 8 19 8h198c13 0 24-5 33-13 8-9 13-20 13-33z" style="fill:#f3f3f3"/><path d="M271 312c0-9-3-18-9-24-6-5-14-9-23-9-3 0-6 0-8 1-2 0-3 1-5 1 0 1 1 1 1 1v6c0 2 0 5-1 8 0 3-1 6-1 9-1 3-4 5-8 4-3-1-5-4-4-7s1-5 2-7v-12c0-1-1-3-1-4v-1c-2-13-9-25-19-33-10-9-23-14-37-14-15 0-29 6-40 17-10 10-16 24-16 40v7c0 2 1 4 1 7 1 3-1 6-4 7h-3c-1 0-1 0-2-1h-2c-5 0-9 2-13 6-3 3-5 7-5 12s2 10 5 13c4 3 8 5 13 5h147c9 0 17-3 23-9s9-14 9-23z" style="fill:#f3f3f3;fill-rule:nonzero"/><path d="M270 280c8 8 13 19 13 32 0 12-5 23-13 31s-19 13-31 13H92c-8 0-16-3-21-9-5-5-9-12-9-21 0-8 4-15 9-21 5-5 12-8 19-8v-9c0-19 8-36 20-49 12-12 29-20 48-20 17 0 33 6 45 17 10 8 18 20 21 33 1 0 3 0 4-1 3 0 7-1 11-1 12 0 23 5 31 13zm1 32c0-9-3-18-9-24-6-5-14-9-23-9-3 0-6 0-8 1-2 0-3 1-5 1 0 1 1 1 1 1v6c0 2 0 5-1 8 0 3-1 6-1 9-1 3-4 5-8 4-3-1-5-4-4-7s1-5 2-7v-12c0-1-1-3-1-4v-1c-2-13-9-25-19-33-10-9-23-14-37-14-15 0-29 6-40 17-10 10-16 24-16 40v7c0 2 1 4 1 7 1 3-1 6-4 7h-3c-1 0-1 0-2-1h-2c-5 0-9 2-13 6-3 3-5 7-5 12s2 10 5 13c4 3 8 5 13 5h147c9 0 17-3 23-9s9-14 9-23z" class="fil14"/><path d="M480 221H0v-11h480z" class="fil3"/><path d="M480 242H0v-11h480v11z" class="fil4"/><path d="M480 263H0v-11h480v11z" class="fil5"/><path d="M480 284H0v-11h480v11z" class="fil6"/><path d="M480 305H0v-11h480v11z" class="fil7"/><path d="M480 326H0v-11h480v11z" class="fil8"/><path d="M480 347H0v-11h480v11z" class="fil9"/><path d="M480 368H0v-11h480v11z" class="fil10"/><path d="M480 389H0v-11h480v11z" class="fil11"/><path d="M480 410H0v-11h480z" class="fil12"/></g></g><path d="M340 0v2c-2 33-17 58-38 74s-49 23-76 23h-1c-20 27-56 44-96 51-43 8-91 5-129-6v-25c36 12 83 16 125 8 37-7 69-22 84-46 2-3 6-6 11-5h6c23 0 45-6 62-19 16-12 27-31 28-56V0h24zm-95 0c2 8 2 15 1 22-1 14-6 25-14 34-8 8-18 14-30 18-8 3-16 4-25 4-17 19-41 31-69 36-35 7-75 6-108 0V90c31 6 70 8 103 1 25-5 46-15 59-32 2-3 6-5 11-5 7 1 15 0 22-3 8-2 15-6 19-11 5-5 8-12 9-20 0-6 0-12-3-20h25zm-93 0c1 3 2 6 2 8 2 12 0 23-6 34s-16 20-30 28h-1C92 83 54 90 0 84V60c50 6 85 1 106-11h1c10-5 17-12 21-18 3-6 4-13 3-18s-3-9-6-13h27z" style="fill:none;fill-rule:nonzero"/></g></svg>