<svg xmlns="http://www.w3.org/2000/svg" xml:space="preserve" width="480" height="420" style="shape-rendering:geometricPrecision;text-rendering:geometricPrecision;image-rendering:optimizeQuality;fill-rule:evenodd;clip-rule:evenodd"><defs><clipPath id="id0" style="clip-rule:nonzero"><path d="M340 0v2c-2 33-17 58-38 74s-49 23-76 23h-1c-20 27-56 44-96 51-43 8-91 5-129-6v-25c36 12 83 16 125 8 37-7 69-22 84-46 2-3 6-6 11-5h6c23 0 45-6 62-19 16-12 27-31 28-56V0h24zm-95 0c2 8 2 15 1 22-1 14-6 25-14 34-8 8-18 14-30 18-8 3-16 4-25 4-17 19-41 31-69 36-35 7-75 6-108 0V90c31 6 70 8 103 1 25-5 46-15 59-32 2-3 6-5 11-5 7 1 15 0 22-3 8-2 15-6 19-11 5-5 8-12 9-20 0-6 0-12-3-20h25zm-93 0c1 3 2 6 2 8 2 12 0 23-6 34s-16 20-30 28h-1C92 83 54 90 0 84V60c50 6 85 1 106-11h1c10-5 17-12 21-18 3-6 4-13 3-18s-3-9-6-13h27z"/></clipPath><style>.str0,.str2,.str3,.str4,.str6,.str7{stroke:#062845;stroke-width:11.811;stroke-linecap:round;stroke-linejoin:round}.str0,.str2,.str4,.str6,.str7{stroke:#8394a2}.str0,.str2,.str4,.str6{stroke:#ccc;stroke-width:8.85827}.str2,.str4,.str6{stroke:#e6e6e6}.str2,.str6{stroke:#ccc;stroke-width:2.95276}.str6{stroke:#e6e6e6}.fil0{fill:none}.fil2{fill:#fff}.fil3,.fil4{fill:#fff;fill-opacity:0}.fil4{fill-opacity:.101961}.fil5,.fil6{fill:#fff;fill-opacity:.2}.fil6{fill-opacity:.301961}.fil7,.fil8{fill:#fff;fill-opacity:.4}.fil8{fill-opacity:.501961}.fil10,.fil9{fill:#fff;fill-opacity:.6}.fil10{fill-opacity:.701961}.fil11,.fil12{fill:#fff;fill-opacity:.8}.fil12{fill-opacity:.901961}</style></defs><g id="Layer_x0020_1"><g id="_233626184"><path d="m416 59-7 23m15-8-23-6" class="fil0 str0"/><path d="m90 105-12 45m29-16-45-12" class="fil0" style="stroke:#ccc;stroke-width:5.90551;stroke-linecap:round;stroke-linejoin:round"/><path d="m282 13-12 45m28-16-45-12" class="fil0 str2"/><path d="m59 58-6 23m14-9-23-6" class="fil0 str0"/><path d="m91 332-12 45m28-17-45-12M419 135l-12 45m29-16-45-12" class="fil0 str2"/></g><path d="M401 337c0-29-23-52-52-52-9 0-18 2-25 6-7-40-42-71-84-71-46 0-84 38-84 85 0 7 1 14 2 20-2 0-5-1-7-1-18 0-33 15-33 33s15 32 33 32h198c29 0 52-23 52-52zm-79-12c2-6 3-13 3-20 0-5-1-9-1-14l-2 34z" style="fill:#ccc"/><path id="1" d="M401 337c0-29-23-52-52-52-9 0-18 2-25 6-7-40-42-71-84-71-46 0-84 38-84 85 0 7 1 14 2 20-2 0-5-1-7-1-18 0-33 15-33 33s15 32 33 32h198c29 0 52-23 52-52zm-79-12c2-6 3-13 3-20 0-5-1-9-1-14" class="fil0 str3"/><path d="M277 307c0-21-17-39-38-39-7 0-13 2-19 5-5-30-31-53-62-53-34 0-62 28-62 63 0 5 0 10 2 15h-6c-13 0-24 10-24 24 0 13 11 24 24 24h147c21 0 38-18 38-39zm-58-9c1-5 2-10 2-15 0-3 0-7-1-10l-1 25z" class="fil2"/><path d="M277 307c0-21-17-39-38-39-7 0-13 2-19 5-5-30-31-53-62-53-34 0-62 28-62 63 0 5 0 10 2 15h-6c-13 0-24 10-24 24 0 13 11 24 24 24h147c21 0 38-18 38-39zm-58-9c1-5 2-10 2-15 0-3 0-7-1-10" class="fil0 str3"/><path d="M480 221H0v-11h480z" class="fil3"/><path d="M480 242H0v-11h480v11z" class="fil4"/><path d="M480 263H0v-11h480v11z" class="fil5"/><path d="M480 284H0v-11h480v11z" class="fil6"/><path d="M480 305H0v-11h480v11z" class="fil7"/><path d="M480 326H0v-11h480v11z" class="fil8"/><path d="M480 347H0v-11h480v11z" class="fil9"/><path d="M480 368H0v-11h480v11z" class="fil10"/><path d="M480 389H0v-11h480v11z" class="fil11"/><path d="M480 410H0v-11h480z" class="fil12"/><g style="clip-path:url(#id0)"><path d="M-300-300h940v755h-940z" style="fill:#fefefe;fill-rule:nonzero"/><g id="Layer_x0020_1_0"><path d="m416 59-7 23m15-8-23-6" class="fil0 str4"/><path d="m90 105-12 45m29-16-45-12" class="fil0" style="stroke:#e6e6e6;stroke-width:5.90551;stroke-linecap:round;stroke-linejoin:round"/><path d="m282 13-12 45m28-16-45-12" class="fil0 str6"/><path d="m59 58-6 23m14-9-23-6" class="fil0 str4"/><path d="m91 332-12 45m28-17-45-12M419 135l-12 45m29-16-45-12" class="fil0 str6"/><path d="M401 337c0-29-23-52-52-52-9 0-18 2-25 6-7-40-42-71-84-71-46 0-84 38-84 85 0 7 1 14 2 20-2 0-5-1-7-1-18 0-33 15-33 33s15 32 33 32h198c29 0 52-23 52-52zm-79-12c2-6 3-13 3-20 0-5-1-9-1-14l-2 34z" style="fill:#e6e6e6"/><path d="M401 337c0-29-23-52-52-52-9 0-18 2-25 6-7-40-42-71-84-71-46 0-84 38-84 85 0 7 1 14 2 20-2 0-5-1-7-1-18 0-33 15-33 33s15 32 33 32h198c29 0 52-23 52-52zm-79-12c2-6 3-13 3-20 0-5-1-9-1-14" class="fil0 str7"/><path d="M277 307c0-21-17-39-38-39-7 0-13 2-19 5-5-30-31-53-62-53-34 0-62 28-62 63 0 5 0 10 2 15h-6c-13 0-24 10-24 24 0 13 11 24 24 24h147c21 0 38-18 38-39zm-58-9c1-5 2-10 2-15 0-3 0-7-1-10l-1 25z" class="fil2"/><path d="M277 307c0-21-17-39-38-39-7 0-13 2-19 5-5-30-31-53-62-53-34 0-62 28-62 63 0 5 0 10 2 15h-6c-13 0-24 10-24 24 0 13 11 24 24 24h147c21 0 38-18 38-39zm-58-9c1-5 2-10 2-15 0-3 0-7-1-10" class="fil0 str7"/><path d="M480 221H0v-11h480z" class="fil3"/><path d="M480 242H0v-11h480v11z" class="fil4"/><path d="M480 263H0v-11h480v11z" class="fil5"/><path d="M480 284H0v-11h480v11z" class="fil6"/><path d="M480 305H0v-11h480v11z" class="fil7"/><path d="M480 326H0v-11h480v11z" class="fil8"/><path d="M480 347H0v-11h480v11z" class="fil9"/><path d="M480 368H0v-11h480v11z" class="fil10"/><path d="M480 389H0v-11h480v11z" class="fil11"/><path d="M480 410H0v-11h480z" class="fil12"/></g></g><path d="M340 0v2c-2 33-17 58-38 74s-49 23-76 23h-1c-20 27-56 44-96 51-43 8-91 5-129-6v-25c36 12 83 16 125 8 37-7 69-22 84-46 2-3 6-6 11-5h6c23 0 45-6 62-19 16-12 27-31 28-56V0h24zm-95 0c2 8 2 15 1 22-1 14-6 25-14 34-8 8-18 14-30 18-8 3-16 4-25 4-17 19-41 31-69 36-35 7-75 6-108 0V90c31 6 70 8 103 1 25-5 46-15 59-32 2-3 6-5 11-5 7 1 15 0 22-3 8-2 15-6 19-11 5-5 8-12 9-20 0-6 0-12-3-20h25zm-93 0c1 3 2 6 2 8 2 12 0 23-6 34s-16 20-30 28h-1C92 83 54 90 0 84V60c50 6 85 1 106-11h1c10-5 17-12 21-18 3-6 4-13 3-18s-3-9-6-13h27z" style="fill:none;fill-rule:nonzero"/></g></svg>