<svg xmlns="http://www.w3.org/2000/svg" xml:space="preserve" width="480" height="420" style="shape-rendering:geometricPrecision;text-rendering:geometricPrecision;image-rendering:optimizeQuality;fill-rule:evenodd;clip-rule:evenodd"><defs><style>.fil0{fill:#fff;fill-rule:nonzero}</style><mask id="id0"><linearGradient id="id1" x1="280.044" x2="199.956" y1="212.872" y2="-8.086" gradientUnits="userSpaceOnUse"><stop offset="0" style="stop-opacity:1;stop-color:white"/><stop offset="1" style="stop-opacity:0;stop-color:white"/></linearGradient><path d="M-1-1h482v207H-1z" style="fill:url(#id1)"/></mask></defs><g id="Layer_x0020_1"><g id="_226099064"><path d="M395 337c0-13-5-24-13-33-9-8-20-13-33-13-4 0-8 0-12 1-2 1-5 2-7 3v2c1 3 1 5 1 8s-1 7-1 11c-1 4-1 7-2 11-1 3-4 5-7 4-4-1-5-4-5-7 1-3 2-6 2-10 1-3 1-6 1-9v-7c-1-2-1-4-1-6-3-19-13-35-27-47s-31-19-51-19c-22 0-41 9-55 23-15 14-23 34-23 56v9c1 4 1 7 2 10s-1 6-4 7h-6c-1-1-2-1-3-1-8 0-14 3-19 8s-8 12-8 19 3 14 8 18c5 5 11 8 19 8h198c13 0 24-5 33-13 8-9 13-20 13-33zm-5-41c10 10 17 25 17 41s-7 30-17 41c-11 10-25 17-41 17H151c-11 0-20-4-27-11s-12-17-12-27c0-11 5-20 12-27s16-11 27-11c0-1 0-2-1-3v-11c0-25 10-48 26-64 17-17 39-27 64-27 23 0 43 8 59 22 14 12 24 28 29 47 2-1 4-2 6-2 5-2 10-2 15-2 16 0 30 6 41 17zm-72-4z" class="fil0"/><path d="M395 337c0-13-5-24-13-33-9-8-20-13-33-13-4 0-8 0-12 1-2 1-5 2-7 3v2c1 3 1 5 1 8s-1 7-1 11c-1 4-1 7-2 11-1 3-4 5-7 4-4-1-5-4-5-7 1-3 2-6 2-10 1-3 1-6 1-9v-7c-1-2-1-4-1-6-3-19-13-35-27-47s-31-19-51-19c-22 0-41 9-55 23-15 14-23 34-23 56v9c1 4 1 7 2 10s-1 6-4 7h-6c-1-1-2-1-3-1-8 0-14 3-19 8s-8 12-8 19 3 14 8 18c5 5 11 8 19 8h198c13 0 24-5 33-13 8-9 13-20 13-33z" style="fill:#e6e6e6"/><g id="_226084088"><path d="M271 312c0-9-3-18-9-24-6-5-14-9-23-9-3 0-6 0-8 1-2 0-3 1-5 1 0 1 1 1 1 1v6c0 2 0 5-1 8 0 3-1 6-1 9-1 3-4 5-8 4-3-1-5-4-4-7s1-5 2-7v-12c0-1-1-3-1-4v-1c-2-13-9-25-19-33-10-9-23-14-37-14-15 0-29 6-40 17-10 10-16 24-16 40v7c0 2 1 4 1 7 1 3-1 6-4 7h-3c-1 0-1 0-2-1h-2c-5 0-9 2-13 6-3 3-5 7-5 12s2 10 5 13c4 3 8 5 13 5h147c9 0 17-3 23-9s9-14 9-23z" style="fill:#e6e6e6;fill-rule:nonzero"/><path d="M270 280c8 8 13 19 13 32 0 12-5 23-13 31s-19 13-31 13H92c-8 0-16-3-21-9-5-5-9-12-9-21 0-8 4-15 9-21 5-5 12-8 19-8v-9c0-19 8-36 20-49 12-12 29-20 48-20 17 0 33 6 45 17 10 8 18 20 21 33 1 0 3 0 4-1 3 0 7-1 11-1 12 0 23 5 31 13zm1 32c0-9-3-18-9-24-6-5-14-9-23-9-3 0-6 0-8 1-2 0-3 1-5 1 0 1 1 1 1 1v6c0 2 0 5-1 8 0 3-1 6-1 9-1 3-4 5-8 4-3-1-5-4-4-7s1-5 2-7v-12c0-1-1-3-1-4v-1c-2-13-9-25-19-33-10-9-23-14-37-14-15 0-29 6-40 17-10 10-16 24-16 40v7c0 2 1 4 1 7 1 3-1 6-4 7h-3c-1 0-1 0-2-1h-2c-5 0-9 2-13 6-3 3-5 7-5 12s2 10 5 13c4 3 8 5 13 5h147c9 0 17-3 23-9s9-14 9-23z" class="fil0"/></g></g><path d="M480 56c-5 0-10 1-15 1l15 12v17c-2-2-4-4-7-5-9-8-18-15-28-22-7 0-15 1-23 2 10 7 20 14 31 21 9 7 18 13 27 20v9c-4 1-10 1-13-2-11-7-22-15-33-23l-33-24c-8 1-17 2-25 3 12 7 24 15 36 22 11 8 23 16 35 23 3 2 3 6-2 8-4 1-11 1-15-1-12-8-25-17-38-25s-27-17-40-25c-9 0-17 1-26 2 14 8 27 16 41 24s27 16 41 24c4 3 3 6-2 8-4 2-11 2-15 0-15-9-30-18-46-27-15-9-30-18-46-27-9 1-19 2-29 3 17 8 33 17 49 26 16 8 31 17 47 25 4 2 4 6-1 8-5 3-13 3-17 0-18-9-35-18-53-28-18-9-36-19-54-29-10 1-21 2-31 3 19 9 38 18 56 28 18 9 37 18 55 27 4 2 4 6-1 8-6 3-14 3-19 1-20-10-40-20-61-30-21-11-42-21-63-31-11 1-23 2-34 3 22 10 44 20 65 29 22 10 43 19 63 29 5 2 5 6-1 9-5 3-14 3-19 1-24-11-47-21-71-32-25-11-49-22-74-33-12 1-25 2-37 3 26 11 51 21 76 32 24 10 49 20 73 30 5 2 5 6-1 9s-16 4-22 2c-26-11-54-23-82-34s-57-23-87-35L0 97V49l15-1c-5-2-10-4-15-7V21l7 3c17 7 34 15 51 23 15-1 29-1 43-2-15-7-31-14-46-22C39 15 23 8 7 0h41c15 8 31 15 46 22 15 8 30 15 45 22 13 0 26-1 39-1-13-7-27-14-40-21-14-7-28-15-42-22h36c13 7 27 14 40 21l39 21c12-1 24-1 36-1-12-7-24-14-36-20-11-7-23-14-35-21h31c12 7 23 13 35 20 11 7 22 13 34 20 11-1 22-1 32-1-10-7-20-13-30-19-10-7-21-13-31-20h27c10 6 20 13 30 19 11 6 20 13 30 19 10 0 21-1 30-1-8-6-17-12-26-18-9-7-18-13-27-19h24c9 6 18 12 26 18l27 18h27c-7-6-15-12-23-18S377 6 369 0h22c7 6 15 12 22 17 8 6 16 12 23 18 9 0 17-1 26-1-7-6-14-11-20-17-7-6-14-11-20-17h19c7 6 13 11 20 17 6 5 13 11 19 16v23zM0 104c25 9 50 19 75 28 28 11 56 21 84 32 6 2 6 7-1 10s-17 4-24 2c-30-12-62-24-95-36-13-5-26-9-39-14v-22zm0 40c32 11 63 21 94 32 7 2 7 7-1 11-7 3-18 4-25 2-23-8-45-15-68-23v-22zM480 10c-3-4-7-7-10-10h10v10zM0 182c8 3 15 5 23 7 7 3 7 8-1 12-6 3-15 4-22 4v-23z" style="mask:url(#id0);fill:#fff;fill-rule:nonzero"/><path d="M480 221H0v-11h480z" style="fill:#fff;fill-opacity:0"/><g id="_226115216"><path d="M480 242H0v-11h480v11z" style="fill:#fff;fill-opacity:.101961"/><path d="M480 263H0v-11h480v11z" style="fill:#fff;fill-opacity:.2"/><path d="M480 284H0v-11h480v11z" style="fill:#fff;fill-opacity:.301961"/><path d="M480 305H0v-11h480v11z" style="fill:#fff;fill-opacity:.4"/><path d="M480 326H0v-11h480v11z" style="fill:#fff;fill-opacity:.501961"/><path d="M480 347H0v-11h480v11z" style="fill:#fff;fill-opacity:.6"/><path d="M480 368H0v-11h480v11z" style="fill:#fff;fill-opacity:.701961"/><path d="M480 389H0v-11h480v11z" style="fill:#fff;fill-opacity:.8"/></g><path d="M480 410H0v-11h480z" style="fill:#fff;fill-opacity:.901961"/></g></svg>