<svg xmlns="http://www.w3.org/2000/svg" xml:space="preserve" width="480" height="420" style="shape-rendering:geometricPrecision;text-rendering:geometricPrecision;image-rendering:optimizeQuality;fill-rule:evenodd;clip-rule:evenodd"><defs><radialGradient id="id0" cx="239.637" cy="241.039" r="203.125" fx="239.637" fy="241.039" gradientUnits="userSpaceOnUse"><stop offset="0" style="stop-opacity:.4;stop-color:#dcbe78"/><stop offset=".4" style="stop-opacity:.4;stop-color:#dcbe78"/><stop offset="1" style="stop-opacity:0;stop-color:#dcbe78"/></radialGradient><style>.fil0{fill:#dcbe78}</style></defs><g id="Ebene_x0020_1"><path d="M96 253C342 281 528-20 354 55 587-56 344 316 96 253zM56 339c295 17 445 85 360-11 32 52-96-3-360 11z" class="fil0"/><path d="M11 285c177 86 406-57 405-103-27 42-258 151-405 103z" class="fil0"/><circle cx="326" cy="288" r="6" class="fil0"/><circle cx="378" cy="310" r="11" class="fil0"/><circle cx="417" cy="265" r="15" class="fil0"/><circle cx="436" cy="153" r="11" class="fil0"/><circle cx="446" cy="294" r="7" class="fil0"/><path d="M65 191c62-17 79-32 148-17-37-34-97-21-148 17z" class="fil0"/><ellipse cx="240" cy="241" rx="236" ry="211" style="fill:url(#id0)"/></g></svg>