<svg xmlns="http://www.w3.org/2000/svg" xml:space="preserve" width="480" height="420" style="shape-rendering:geometricPrecision;text-rendering:geometricPrecision;image-rendering:optimizeQuality;fill-rule:evenodd;clip-rule:evenodd"><defs><style>.str4{stroke:#062845;stroke-width:11.811}.str0{stroke:#52b1ff;stroke-width:8.85827;stroke-linecap:round;stroke-linejoin:round}.fil0{fill:none}</style></defs><g id="Layer_x0020_1"><g id="_233638376"><path d="m416 59-7 23m15-8-23-6" class="fil0 str0"/><path d="m90 105-12 45m29-16-45-12" class="fil0" style="stroke:gray;stroke-width:5.90551;stroke-linecap:round;stroke-linejoin:round"/><path d="m282 13-12 45m28-16-45-12" class="fil0" style="stroke:#ccc;stroke-width:2.95276;stroke-linecap:round;stroke-linejoin:round"/><path d="m59 58-6 23m14-9-23-6" class="fil0 str0"/><path d="m419 135-12 45m29-16-45-12" class="fil0" style="stroke:#fff;stroke-width:2.95276;stroke-linecap:round;stroke-linejoin:round"/></g><g id="_233651696"><path d="M382 210c0-79-63-142-142-142S98 131 98 210s63 142 142 142 142-63 142-142z" class="str4" style="fill:#023557"/><path d="M254 69h-14c-78 0-141 63-141 141s63 141 141 141h13c18-3 14-21 8-25-29-22-49-66-49-116 0-51 20-94 49-117 7-2 9-21-7-24z" class="str4" style="fill:#fff2c9"/></g><g id="_233622344"><path d="M251 289c2-7 3-15 3-22 0-5-1-10-2-15l-1 37zm138-23c2-5 2-11 2-17 0-4 0-7-1-11l-1 28zm-136-15s0 1-1 1c-7-45-45-79-91-79-52 0-94 42-94 94 0 7 1 15 3 22-2 0-5-1-8-1-20 0-36 16-36 36s16 36 36 36h218c26 0 49-18 56-42h75c23 0 42-19 42-43 0-23-19-42-42-42-8 0-15 2-21 5-5-33-33-58-68-58-38 0-69 31-69 69v2z" style="fill:#b3b3b3"/><path d="M445 241c9 9 14 21 14 34 0 14-5 26-14 35s-21 14-34 14h-71c-3 9-8 17-15 23-11 11-27 19-45 19H62c-12 0-22-5-30-13-7-7-12-17-12-29 0-11 5-22 12-29 8-8 18-12 30-12h1c0-2-1-3-1-4 0-4-1-8-1-12 0-28 12-53 29-70 18-18 43-29 71-29 24 0 46 8 64 23 11 10 20 22 26 35 4-11 10-21 18-30 14-13 33-22 53-22 19 0 36 7 49 18 11 10 20 23 24 38 1-1 2-1 4-1 4-1 8-2 12-2 13 0 25 5 34 14zm-113 61c0-14-6-27-15-36-10-10-23-15-37-15-4 0-9 0-13 1-3 1-5 2-8 3v4c0 2 1 5 1 8 0 4-1 8-1 12l-3 12c0 3-4 5-7 4s-5-4-4-7 2-7 2-11c0-3 1-7 1-10s0-5-1-7v-8c-4-20-15-39-30-52s-35-21-56-21c-25 0-46 10-62 26s-26 37-26 62c0 3 1 7 1 10 0 4 1 8 2 11s-1 6-4 7h-7c-1-1-2-1-3-1-8 0-16 4-21 9-6 5-9 13-9 21s3 16 9 21c5 5 13 9 21 9h218c14 0 27-6 37-15 9-10 15-23 15-37zm-7-45c12 12 19 28 19 45 0 4-1 7-1 10h68c10 0 19-4 26-11 6-6 11-15 11-26 0-10-5-19-11-25v-1c-7-6-16-10-26-10-3 0-6 0-9 1-2 0-4 1-5 2v16c-1 3-1 7-2 10s-4 5-7 4c-4-1-5-4-5-7 1-3 1-5 2-8v-18h-1c-2-15-10-28-21-38-11-9-25-15-41-15-17 0-33 7-44 19-10 9-17 23-18 37 1 0 3-1 4-1 6-2 11-2 16-2 18 0 34 7 45 18z" style="fill:#fff;fill-rule:nonzero"/></g></g></svg>