<svg xmlns="http://www.w3.org/2000/svg" xml:space="preserve" width="480" height="420" style="shape-rendering:geometricPrecision;text-rendering:geometricPrecision;image-rendering:optimizeQuality;fill-rule:evenodd;clip-rule:evenodd"><defs><style>.str0{stroke:#062845;stroke-width:11.811}.str1,.str4{stroke:#52b1ff;stroke-width:8.85827;stroke-linecap:round;stroke-linejoin:round}.str4{stroke:#fff;stroke-width:2.95276}.fil2{fill:none}</style></defs><g id="Layer_x0020_1"><g id="_226660008"><path d="M382 210c0-79-63-142-142-142S98 131 98 210s63 142 142 142 142-63 142-142z" class="str0" style="fill:#023557"/><path d="M254 69h-14c-78 0-141 63-141 141s63 141 141 141h13c18-3 14-21 8-25-29-22-49-66-49-116 0-51 20-94 49-117 7-2 9-21-7-24z" class="str0" style="fill:#fff2c9"/></g><g id="_226649088"><path d="m416 59-7 23m15-8-23-6" class="fil2 str1"/><path d="m90 105-12 45m29-16-45-12" class="fil2" style="stroke:gray;stroke-width:5.90551;stroke-linecap:round;stroke-linejoin:round"/><path d="m282 13-12 45m28-16-45-12" class="fil2" style="stroke:#ccc;stroke-width:2.95276;stroke-linecap:round;stroke-linejoin:round"/><path d="m59 58-6 23m14-9-23-6" class="fil2 str1"/><path d="m91 332-12 45m28-17-45-12M419 135l-12 45m29-16-45-12" class="fil2 str4"/></g></g></svg>