<svg xmlns="http://www.w3.org/2000/svg" xml:space="preserve" width="480" height="420" style="shape-rendering:geometricPrecision;text-rendering:geometricPrecision;image-rendering:optimizeQuality;fill-rule:evenodd;clip-rule:evenodd"><defs><clipPath id="id0" style="clip-rule:nonzero"><path d="M340 0v2c-2 33-17 58-38 74s-49 23-76 23h-1c-20 27-56 44-96 51-43 8-91 5-129-6v-25c36 12 83 16 125 8 37-7 69-22 84-46 2-3 6-6 11-5h6c23 0 45-6 62-19 16-12 27-31 28-56V0h24zm-95 0c2 8 2 15 1 22-1 14-6 25-14 34-8 8-18 14-30 18-8 3-16 4-25 4-17 19-41 31-69 36-35 7-75 6-108 0V90c31 6 70 8 103 1 25-5 46-15 59-32 2-3 6-5 11-5 7 1 15 0 22-3 8-2 15-6 19-11 5-5 8-12 9-20 0-6 0-12-3-20h25zm-93 0c1 3 2 6 2 8 2 12 0 23-6 34s-16 20-30 28h-1C92 83 54 90 0 84V60c50 6 85 1 106-11h1c10-5 17-12 21-18 3-6 4-13 3-18s-3-9-6-13h27z"/></clipPath><style>.fil2{fill:#fff;fill-rule:nonzero}</style></defs><g id="Layer_x0020_1"><path d="M175 137c2 2 2 6 0 8s-6 2-8 0l-63-63c-2-2-2-6 0-8 3-2 6-2 9 0l62 63zm251 67c4 0 6 3 6 6s-2 6-6 6h-88c-4 0-6-3-6-6s2-6 6-6h88zm-284 0c4 0 6 3 6 6s-2 6-6 6H54c-4 0-6-3-6-6s2-6 6-6h88zM367 74c3-2 6-2 9 0 2 2 2 6 0 8l-63 63c-2 2-6 2-8 0s-2-6 0-8l62-63zm-215 93c3 2 4 5 3 8s-5 4-8 3l-33-14c-3-1-4-4-3-7s5-5 8-3l33 13zm134-83c1-3 4-4 7-3s5 5 3 8l-13 33c-1 3-5 4-8 3s-4-5-3-8l14-33zm75 70c3-2 6 0 8 3 1 3-1 6-4 7l-32 14c-3 1-7 0-8-3s0-7 3-8l33-13zm-153-37c1 3 0 7-3 8s-7 0-8-3l-13-33c-2-3 0-6 3-8 3-1 6 0 8 4l13 32zm26-93c0-4 3-6 6-6s6 2 6 6v88c0 3-3 6-6 6s-6-3-6-6V24zm6 260c41 0 74-33 74-74s-33-74-74-74-74 33-74 74 33 74 74 74z" style="fill:#ffd153;fill-rule:nonzero"/><g id="_226084256"><path d="M251 289c2-7 3-15 3-22 0-5-1-10-2-15l-1 37zm138-23c2-5 2-11 2-17 0-4 0-7-1-11l-1 28zm-136-15s0 1-1 1c-7-45-45-79-91-79-52 0-94 42-94 94 0 7 1 15 3 22-2 0-5-1-8-1-20 0-36 16-36 36s16 36 36 36h218c26 0 49-18 56-42h75c23 0 42-19 42-43 0-23-19-42-42-42-8 0-15 2-21 5-5-33-33-58-68-58-38 0-69 31-69 69v2z" style="fill:#b3b3b3"/><path d="M445 241c9 9 14 21 14 34 0 14-5 26-14 35s-21 14-34 14h-71c-3 9-8 17-15 23-11 11-27 19-45 19H62c-12 0-22-5-30-13-7-7-12-17-12-29 0-11 5-22 12-29 8-8 18-12 30-12h1c0-2-1-3-1-4 0-4-1-8-1-12 0-28 12-53 29-70 18-18 43-29 71-29 24 0 46 8 64 23 11 10 20 22 26 35 4-11 10-21 18-30 14-13 33-22 53-22 19 0 36 7 49 18 11 10 20 23 24 38 1-1 2-1 4-1 4-1 8-2 12-2 13 0 25 5 34 14zm-113 61c0-14-6-27-15-36-10-10-23-15-37-15-4 0-9 0-13 1-3 1-5 2-8 3v4c0 2 1 5 1 8 0 4-1 8-1 12l-3 12c0 3-4 5-7 4s-5-4-4-7 2-7 2-11c0-3 1-7 1-10s0-5-1-7v-8c-4-20-15-39-30-52s-35-21-56-21c-25 0-46 10-62 26s-26 37-26 62c0 3 1 7 1 10 0 4 1 8 2 11s-1 6-4 7h-7c-1-1-2-1-3-1-8 0-16 4-21 9-6 5-9 13-9 21s3 16 9 21c5 5 13 9 21 9h218c14 0 27-6 37-15 9-10 15-23 15-37zm-7-45c12 12 19 28 19 45 0 4-1 7-1 10h68c10 0 19-4 26-11 6-6 11-15 11-26 0-10-5-19-11-25v-1c-7-6-16-10-26-10-3 0-6 0-9 1-2 0-4 1-5 2v16c-1 3-1 7-2 10s-4 5-7 4c-4-1-5-4-5-7 1-3 1-5 2-8v-18h-1c-2-15-10-28-21-38-11-9-25-15-41-15-17 0-33 7-44 19-10 9-17 23-18 37 1 0 3-1 4-1 6-2 11-2 16-2 18 0 34 7 45 18z" class="fil2"/></g><g style="clip-path:url(#id0)"><path d="M-300-300h940v755h-940z" style="fill:#fefefe;fill-rule:nonzero"/><g id="Layer_x0020_1_0"><path id="1" d="M175 137c2 2 2 6 0 8s-6 2-8 0l-63-63c-2-2-2-6 0-8 3-2 6-2 9 0l62 63zm251 67c4 0 6 3 6 6s-2 6-6 6h-88c-4 0-6-3-6-6s2-6 6-6h88zm-284 0c4 0 6 3 6 6s-2 6-6 6H54c-4 0-6-3-6-6s2-6 6-6h88zM367 74c3-2 6-2 9 0 2 2 2 6 0 8l-63 63c-2 2-6 2-8 0s-2-6 0-8l62-63zm-215 93c3 2 4 5 3 8s-5 4-8 3l-33-14c-3-1-4-4-3-7s5-5 8-3l33 13zm134-83c1-3 4-4 7-3s5 5 3 8l-13 33c-1 3-5 4-8 3s-4-5-3-8l14-33zm75 70c3-2 6 0 8 3 1 3-1 6-4 7l-32 14c-3 1-7 0-8-3s0-7 3-8l33-13zm-153-37c1 3 0 7-3 8s-7 0-8-3l-13-33c-2-3 0-6 3-8 3-1 6 0 8 4l13 32zm26-93c0-4 3-6 6-6s6 2 6 6v88c0 3-3 6-6 6s-6-3-6-6V24zm6 260c41 0 74-33 74-74s-33-74-74-74-74 33-74 74 33 74 74 74z" style="fill:#ffe8a9;fill-rule:nonzero"/><path d="M251 289c2-7 3-15 3-22 0-5-1-10-2-15l-1 37zm138-23c2-5 2-11 2-17 0-4 0-7-1-11l-1 28zm-136-15s0 1-1 1c-7-45-45-79-91-79-52 0-94 42-94 94 0 7 1 15 3 22-2 0-5-1-8-1-20 0-36 16-36 36s16 36 36 36h218c26 0 49-18 56-42h75c23 0 42-19 42-43 0-23-19-42-42-42-8 0-15 2-21 5-5-33-33-58-68-58-38 0-69 31-69 69v2z" style="fill:#d9d9d9"/><path d="M445 241c9 9 14 21 14 34 0 14-5 26-14 35s-21 14-34 14h-71c-3 9-8 17-15 23-11 11-27 19-45 19H62c-12 0-22-5-30-13-7-7-12-17-12-29 0-11 5-22 12-29 8-8 18-12 30-12h1c0-2-1-3-1-4 0-4-1-8-1-12 0-28 12-53 29-70 18-18 43-29 71-29 24 0 46 8 64 23 11 10 20 22 26 35 4-11 10-21 18-30 14-13 33-22 53-22 19 0 36 7 49 18 11 10 20 23 24 38 1-1 2-1 4-1 4-1 8-2 12-2 13 0 25 5 34 14zm-113 61c0-14-6-27-15-36-10-10-23-15-37-15-4 0-9 0-13 1-3 1-5 2-8 3v4c0 2 1 5 1 8 0 4-1 8-1 12l-3 12c0 3-4 5-7 4s-5-4-4-7 2-7 2-11c0-3 1-7 1-10s0-5-1-7v-8c-4-20-15-39-30-52s-35-21-56-21c-25 0-46 10-62 26s-26 37-26 62c0 3 1 7 1 10 0 4 1 8 2 11s-1 6-4 7h-7c-1-1-2-1-3-1-8 0-16 4-21 9-6 5-9 13-9 21s3 16 9 21c5 5 13 9 21 9h218c14 0 27-6 37-15 9-10 15-23 15-37zm-7-45c12 12 19 28 19 45 0 4-1 7-1 10h68c10 0 19-4 26-11 6-6 11-15 11-26 0-10-5-19-11-25v-1c-7-6-16-10-26-10-3 0-6 0-9 1-2 0-4 1-5 2v16c-1 3-1 7-2 10s-4 5-7 4c-4-1-5-4-5-7 1-3 1-5 2-8v-18h-1c-2-15-10-28-21-38-11-9-25-15-41-15-17 0-33 7-44 19-10 9-17 23-18 37 1 0 3-1 4-1 6-2 11-2 16-2 18 0 34 7 45 18z" class="fil2"/></g></g><path d="M340 0v2c-2 33-17 58-38 74s-49 23-76 23h-1c-20 27-56 44-96 51-43 8-91 5-129-6v-25c36 12 83 16 125 8 37-7 69-22 84-46 2-3 6-6 11-5h6c23 0 45-6 62-19 16-12 27-31 28-56V0h24zm-95 0c2 8 2 15 1 22-1 14-6 25-14 34-8 8-18 14-30 18-8 3-16 4-25 4-17 19-41 31-69 36-35 7-75 6-108 0V90c31 6 70 8 103 1 25-5 46-15 59-32 2-3 6-5 11-5 7 1 15 0 22-3 8-2 15-6 19-11 5-5 8-12 9-20 0-6 0-12-3-20h25zm-93 0c1 3 2 6 2 8 2 12 0 23-6 34s-16 20-30 28h-1C92 83 54 90 0 84V60c50 6 85 1 106-11h1c10-5 17-12 21-18 3-6 4-13 3-18s-3-9-6-13h27z" style="fill:none;fill-rule:nonzero"/></g></svg>