<svg xmlns="http://www.w3.org/2000/svg" xml:space="preserve" width="480" height="420" style="shape-rendering:geometricPrecision;text-rendering:geometricPrecision;image-rendering:optimizeQuality;fill-rule:evenodd;clip-rule:evenodd"><defs><style>.fil2{fill:#fff;fill-rule:nonzero}</style><mask id="id0"><linearGradient id="id1" x1="280.044" x2="199.956" y1="212.872" y2="-8.086" gradientUnits="userSpaceOnUse"><stop offset="0" style="stop-opacity:1;stop-color:white"/><stop offset="1" style="stop-opacity:0;stop-color:white"/></linearGradient><path d="M-1-1h482v207H-1z" style="fill:url(#id1)"/></mask></defs><g id="Layer_x0020_1"><path d="M175 137c2 2 2 6 0 8s-6 2-8 0l-63-63c-2-2-2-6 0-8 3-2 6-2 9 0l62 63zm251 67c4 0 6 3 6 6s-2 6-6 6h-88c-4 0-6-3-6-6s2-6 6-6h88zm-284 0c4 0 6 3 6 6s-2 6-6 6H54c-4 0-6-3-6-6s2-6 6-6h88zM367 74c3-2 6-2 9 0 2 2 2 6 0 8l-63 63c-2 2-6 2-8 0s-2-6 0-8l62-63zm-215 93c3 2 4 5 3 8s-5 4-8 3l-33-14c-3-1-4-4-3-7s5-5 8-3l33 13zm134-83c1-3 4-4 7-3s5 5 3 8l-13 33c-1 3-5 4-8 3s-4-5-3-8l14-33zm75 70c3-2 6 0 8 3 1 3-1 6-4 7l-32 14c-3 1-7 0-8-3s0-7 3-8l33-13zm-153-37c1 3 0 7-3 8s-7 0-8-3l-13-33c-2-3 0-6 3-8 3-1 6 0 8 4l13 32zm26-93c0-4 3-6 6-6s6 2 6 6v88c0 3-3 6-6 6s-6-3-6-6V24zm6 260c41 0 74-33 74-74s-33-74-74-74-74 33-74 74 33 74 74 74z" style="fill:#ffd153;fill-rule:nonzero"/><g id="_226087184"><path d="M251 289c2-7 3-15 3-22 0-5-1-10-2-15l-1 37zm138-23c2-5 2-11 2-17 0-4 0-7-1-11l-1 28zm-136-15s0 1-1 1c-7-45-45-79-91-79-52 0-94 42-94 94 0 7 1 15 3 22-2 0-5-1-8-1-20 0-36 16-36 36s16 36 36 36h218c26 0 49-18 56-42h75c23 0 42-19 42-43 0-23-19-42-42-42-8 0-15 2-21 5-5-33-33-58-68-58-38 0-69 31-69 69v2z" style="fill:#b3b3b3"/><path d="M445 241c9 9 14 21 14 34 0 14-5 26-14 35s-21 14-34 14h-71c-3 9-8 17-15 23-11 11-27 19-45 19H62c-12 0-22-5-30-13-7-7-12-17-12-29 0-11 5-22 12-29 8-8 18-12 30-12h1c0-2-1-3-1-4 0-4-1-8-1-12 0-28 12-53 29-70 18-18 43-29 71-29 24 0 46 8 64 23 11 10 20 22 26 35 4-11 10-21 18-30 14-13 33-22 53-22 19 0 36 7 49 18 11 10 20 23 24 38 1-1 2-1 4-1 4-1 8-2 12-2 13 0 25 5 34 14zm-113 61c0-14-6-27-15-36-10-10-23-15-37-15-4 0-9 0-13 1-3 1-5 2-8 3v4c0 2 1 5 1 8 0 4-1 8-1 12l-3 12c0 3-4 5-7 4s-5-4-4-7 2-7 2-11c0-3 1-7 1-10s0-5-1-7v-8c-4-20-15-39-30-52s-35-21-56-21c-25 0-46 10-62 26s-26 37-26 62c0 3 1 7 1 10 0 4 1 8 2 11s-1 6-4 7h-7c-1-1-2-1-3-1-8 0-16 4-21 9-6 5-9 13-9 21s3 16 9 21c5 5 13 9 21 9h218c14 0 27-6 37-15 9-10 15-23 15-37zm-7-45c12 12 19 28 19 45 0 4-1 7-1 10h68c10 0 19-4 26-11 6-6 11-15 11-26 0-10-5-19-11-25v-1c-7-6-16-10-26-10-3 0-6 0-9 1-2 0-4 1-5 2v16c-1 3-1 7-2 10s-4 5-7 4c-4-1-5-4-5-7 1-3 1-5 2-8v-18h-1c-2-15-10-28-21-38-11-9-25-15-41-15-17 0-33 7-44 19-10 9-17 23-18 37 1 0 3-1 4-1 6-2 11-2 16-2 18 0 34 7 45 18z" class="fil2"/></g><path d="M480 56c-5 0-10 1-15 1l15 12v17c-2-2-4-4-7-5-9-8-18-15-28-22-7 0-15 1-23 2 10 7 20 14 31 21 9 7 18 13 27 20v9c-4 1-10 1-13-2-11-7-22-15-33-23l-33-24c-8 1-17 2-25 3 12 7 24 15 36 22 11 8 23 16 35 23 3 2 3 6-2 8-4 1-11 1-15-1-12-8-25-17-38-25s-27-17-40-25c-9 0-17 1-26 2 14 8 27 16 41 24s27 16 41 24c4 3 3 6-2 8-4 2-11 2-15 0-15-9-30-18-46-27-15-9-30-18-46-27-9 1-19 2-29 3 17 8 33 17 49 26 16 8 31 17 47 25 4 2 4 6-1 8-5 3-13 3-17 0-18-9-35-18-53-28-18-9-36-19-54-29-10 1-21 2-31 3 19 9 38 18 56 28 18 9 37 18 55 27 4 2 4 6-1 8-6 3-14 3-19 1-20-10-40-20-61-30-21-11-42-21-63-31-11 1-23 2-34 3 22 10 44 20 65 29 22 10 43 19 63 29 5 2 5 6-1 9-5 3-14 3-19 1-24-11-47-21-71-32-25-11-49-22-74-33-12 1-25 2-37 3 26 11 51 21 76 32 24 10 49 20 73 30 5 2 5 6-1 9s-16 4-22 2c-26-11-54-23-82-34s-57-23-87-35L0 97V49l15-1c-5-2-10-4-15-7V21l7 3c17 7 34 15 51 23 15-1 29-1 43-2-15-7-31-14-46-22C39 15 23 8 7 0h41c15 8 31 15 46 22 15 8 30 15 45 22 13 0 26-1 39-1-13-7-27-14-40-21-14-7-28-15-42-22h36c13 7 27 14 40 21l39 21c12-1 24-1 36-1-12-7-24-14-36-20-11-7-23-14-35-21h31c12 7 23 13 35 20 11 7 22 13 34 20 11-1 22-1 32-1-10-7-20-13-30-19-10-7-21-13-31-20h27c10 6 20 13 30 19 11 6 20 13 30 19 10 0 21-1 30-1-8-6-17-12-26-18-9-7-18-13-27-19h24c9 6 18 12 26 18l27 18h27c-7-6-15-12-23-18S377 6 369 0h22c7 6 15 12 22 17 8 6 16 12 23 18 9 0 17-1 26-1-7-6-14-11-20-17-7-6-14-11-20-17h19c7 6 13 11 20 17 6 5 13 11 19 16v23zM0 104c25 9 50 19 75 28 28 11 56 21 84 32 6 2 6 7-1 10s-17 4-24 2c-30-12-62-24-95-36-13-5-26-9-39-14v-22zm0 40c32 11 63 21 94 32 7 2 7 7-1 11-7 3-18 4-25 2-23-8-45-15-68-23v-22zM480 10c-3-4-7-7-10-10h10v10zM0 182c8 3 15 5 23 7 7 3 7 8-1 12-6 3-15 4-22 4v-23z" class="fil2" style="mask:url(#id0)"/></g></svg>