<svg xmlns="http://www.w3.org/2000/svg" xml:space="preserve" width="480" height="420" style="shape-rendering:geometricPrecision;text-rendering:geometricPrecision;image-rendering:optimizeQuality;fill-rule:evenodd;clip-rule:evenodd"><defs><style>.str0{stroke:#062845;stroke-width:11.811}.str1{stroke:#52b1ff;stroke-width:8.85827;stroke-linecap:round;stroke-linejoin:round}.fil2{fill:none}</style></defs><g id="Layer_x0020_1"><g id="_233639792"><path d="M382 210c0-79-63-142-142-142S98 131 98 210s63 142 142 142 142-63 142-142z" class="str0" style="fill:#023557"/><path d="M254 69h-14c-78 0-141 63-141 141s63 141 141 141h13c18-3 14-21 8-25-29-22-49-66-49-116 0-51 20-94 49-117 7-2 9-21-7-24z" class="str0" style="fill:#fff2c9"/></g><g id="_232639904"><path d="m416 59-7 23m15-8-23-6" class="fil2 str1"/><path d="m90 105-12 45m29-16-45-12" class="fil2" style="stroke:gray;stroke-width:5.90551;stroke-linecap:round;stroke-linejoin:round"/><path d="m282 13-12 45m28-16-45-12" class="fil2" style="stroke:#ccc;stroke-width:2.95276;stroke-linecap:round;stroke-linejoin:round"/><path d="m59 58-6 23m14-9-23-6" class="fil2 str1"/><path d="m419 135-12 45m29-16-45-12" class="fil2" style="stroke:#fff;stroke-width:2.95276;stroke-linecap:round;stroke-linejoin:round"/></g><path d="M338 263c0-31-26-57-58-57-10 0-19 2-28 7-7-44-45-78-91-78-52 0-94 41-94 93 0 8 1 15 3 23-2-1-5-1-8-1-20 0-36 16-36 35 0 20 16 36 36 36h218c32 0 58-26 58-58zm-87-12c2-8 3-15 3-23 0-5-1-10-2-15l-1 38z" style="fill:#b3b3b3"/><path id="1" d="M338 263c0-31-26-57-58-57-10 0-19 2-28 7-7-44-45-78-91-78-52 0-94 41-94 93 0 8 1 15 3 23-2-1-5-1-8-1-20 0-36 16-36 35 0 20 16 36 36 36h218c32 0 58-26 58-58zm-87-12c2-8 3-15 3-23 0-5-1-10-2-15" class="fil2" style="stroke:#fff;stroke-width:11.811;stroke-linecap:round;stroke-linejoin:round"/><path d="m81 342 16-15c3 3 12 11 16 15 20 19-11 49-32 29-9-8-9-21 0-29zm60 0 16-15c4 3 12 11 16 15 9 8 9 21 0 29s-23 8-32 0-9-21 0-29zm61 0 16-15c3 3 12 11 15 15 9 8 9 21 0 29-8 8-23 8-31 0-9-8-9-21 0-29z" style="fill:#52b1ff"/><path d="m95 398 53-105h-39l42-109h52l-42 84h43z" style="fill:#f39;fill-rule:nonzero"/></g></svg>