<svg xmlns="http://www.w3.org/2000/svg" xml:space="preserve" width="480" height="420" style="shape-rendering:geometricPrecision;text-rendering:geometricPrecision;image-rendering:optimizeQuality;fill-rule:evenodd;clip-rule:evenodd"><defs><style>.fil3{fill:#fff}</style></defs><g id="Layer_x0020_1"><path d="M175 137c2 2 2 6 0 8s-6 2-8 0l-63-63c-2-2-2-6 0-8 3-2 6-2 9 0l62 63zm-33 67c4 0 6 3 6 6s-2 6-6 6H54c-4 0-6-3-6-6s2-6 6-6h88zM367 74c3-2 6-2 9 0 2 2 2 6 0 8l-63 63c-2 2-6 2-8 0s-2-6 0-8l62-63zM167 275c2-2 6-2 8 0s2 6 0 8l-62 63c-3 2-6 2-9 0-2-2-2-6 0-8l63-63zm-15-108c3 2 4 5 3 8s-5 4-8 3l-33-14c-3-1-4-4-3-7s5-5 8-3l33 13zm134-83c1-3 4-4 7-3s5 5 3 8l-13 33c-1 3-5 4-8 3s-4-5-3-8l14-33zm-89 214c1-3 5-4 8-3s4 5 3 8l-14 33c-1 3-4 4-7 3s-5-5-4-8l14-33zm164-144c3-2 6 0 8 3 1 3-1 6-4 7l-32 14c-3 1-7 0-8-3s0-7 3-8l33-13zm-214 88c3-1 7 0 8 3s0 7-3 8l-33 14c-3 1-6-1-8-4-1-3 0-6 3-7l33-14zm61-125c1 3 0 7-3 8s-7 0-8-3l-13-33c-2-3 0-6 3-8 3-1 6 0 8 4l13 32zm26-93c0-4 3-6 6-6s6 2 6 6v88c0 3-3 6-6 6s-6-3-6-6V24zm6 260c41 0 74-33 74-74s-33-74-74-74-74 33-74 74 33 74 74 74z" style="fill:#ffd153;fill-rule:nonzero"/><g id="_226114928"><path d="M447 273c8 8 13 19 13 31s-5 24-13 32-19 13-32 13H269c-9 0-16-4-21-9-6-5-9-13-9-21s3-16 9-21c5-5 11-8 19-9v-9c0-19 7-36 20-48 12-13 29-20 48-20 17 0 32 6 44 16 11 9 18 21 22 34 1 0 2-1 3-1 4-1 8-1 11-1 13 0 24 5 32 13z" style="fill:#fff;fill-rule:nonzero"/><path d="M448 304c0-9-4-17-10-23-5-6-14-10-23-10-3 0-5 1-8 1-1 1-3 1-4 2v15c-1 3-1 5-2 8s-4 5-7 4c-3 0-5-4-4-7 0-2 1-4 1-7 0-2 1-4 1-7 0-1 0-3-1-4v-5c-2-14-9-25-19-34-10-8-23-13-37-13-16 0-30 6-40 16s-17 25-17 40c0 3 0 5 1 7 0 3 0 5 1 7 1 3-1 7-4 7-1 1-2 1-3 0h-4c-5 0-10 2-13 5s-5 8-5 13 2 9 5 13c3 3 8 5 13 5h146c9 0 18-4 23-10 6-6 10-14 10-23z" style="fill:#ccc;fill-rule:nonzero"/></g><g id="snowflakes"><path id="rect3428" d="M279 352v8l-7-7-3 3 10 11v11l-10-6-3-14-5 2 3 9-7-4-2 4 6 4-9 2 1 5 14-4 10 6-10 5-14-3-1 4 9 3-6 3 2 4 7-3-3 9 5 1 3-14 10-5v11l-10 10 3 3 7-6v7h5v-7l6 6 4-3-10-10v-11l9 5 4 14 4-1-2-9 6 3 3-4-7-3 10-3-2-4-13 3-10-5 10-6 13 4 2-5-10-2 7-4-3-4-6 4 2-9-4-2-4 14-9 6v-11l10-11-4-3-6 7v-8z" class="fil3"/><path id="rect3428_0" d="M342 353v7l-7-7-3 4 10 10v11l-10-6-3-13-5 1 3 9-7-4-2 4 6 4-9 3 1 4 14-4 10 6-10 5-14-3-1 4 9 3-6 4 2 4 7-4-3 9 5 1 3-13 10-6v11l-10 10 3 4 7-7v7h5v-7l7 7 3-4-10-10v-11l9 6 4 13 5-1-3-9 7 4 2-4-6-4 9-3-1-4-14 3-10-5 10-6 14 4 1-4-9-3 6-4-2-4-7 4 3-9-5-1-4 13-9 6v-11l10-10-3-4-7 7v-7z" class="fil3"/><path id="rect3428_1" d="M405 352v8l-7-7-3 3 10 11v11l-9-6-4-14-5 2 3 9-7-4-2 4 7 4-10 2 1 5 14-4 10 6-10 5-14-3-1 4 10 3-7 3 2 4 7-3-3 9 5 1 4-14 9-5v11l-10 10 3 3 7-6v7h5v-7l7 6 3-3-10-10v-11l10 5 3 14 5-1-3-9 7 3 2-4-6-3 9-3-1-4-14 3-10-5 10-6 14 4 1-5-9-2 6-4-2-4-7 4 3-9-5-2-3 14-10 6v-11l10-11-3-3-7 7v-8z" class="fil3"/></g></g></svg>