<svg xmlns="http://www.w3.org/2000/svg" xml:space="preserve" width="480" height="420" style="shape-rendering:geometricPrecision;text-rendering:geometricPrecision;image-rendering:optimizeQuality;fill-rule:evenodd;clip-rule:evenodd"><defs><style>.str0{stroke:#062845;stroke-width:11.811}.str1,.str4{stroke:#52b1ff;stroke-width:8.85827;stroke-linecap:round;stroke-linejoin:round}.str4{stroke:#fff;stroke-width:2.95276}.fil2{fill:none}</style><mask id="id0"><linearGradient id="id1" x1="280.044" x2="199.956" y1="212.872" y2="-8.086" gradientUnits="userSpaceOnUse"><stop offset="0" style="stop-opacity:1;stop-color:white"/><stop offset="1" style="stop-opacity:0;stop-color:white"/></linearGradient><path d="M-1-1h482v207H-1z" style="fill:url(#id1)"/></mask></defs><g id="Layer_x0020_1"><g id="_178131968"><path d="M382 210c0-79-63-142-142-142S98 131 98 210s63 142 142 142 142-63 142-142z" class="str0" style="fill:#023557"/><path d="M254 69h-14c-78 0-141 63-141 141s63 141 141 141h13c18-3 14-21 8-25-29-22-49-66-49-116 0-51 20-94 49-117 7-2 9-21-7-24z" class="str0" style="fill:#fff2c9"/></g><g id="_178124312"><path d="m416 59-7 23m15-8-23-6" class="fil2 str1"/><path d="m90 105-12 45m29-16-45-12" class="fil2" style="stroke:gray;stroke-width:5.90551;stroke-linecap:round;stroke-linejoin:round"/><path d="m282 13-12 45m28-16-45-12" class="fil2" style="stroke:#ccc;stroke-width:2.95276;stroke-linecap:round;stroke-linejoin:round"/><path d="m59 58-6 23m14-9-23-6" class="fil2 str1"/><path d="m91 332-12 45m28-17-45-12M419 135l-12 45m29-16-45-12" class="fil2 str4"/></g><path d="M480 56c-5 0-10 1-15 1l15 12v17c-2-2-4-4-7-5-9-8-18-15-28-22-7 0-15 1-23 2 10 7 20 14 31 21 9 7 18 13 27 20v9c-4 1-10 1-13-2-11-7-22-15-33-23l-33-24c-8 1-17 2-25 3 12 7 24 15 36 22 11 8 23 16 35 23 3 2 3 6-2 8-4 1-11 1-15-1-12-8-25-17-38-25s-27-17-40-25c-9 0-17 1-26 2 14 8 27 16 41 24s27 16 41 24c4 3 3 6-2 8-4 2-11 2-15 0-15-9-30-18-46-27-15-9-30-18-46-27-9 1-19 2-29 3 17 8 33 17 49 26 16 8 31 17 47 25 4 2 4 6-1 8-5 3-13 3-17 0-18-9-35-18-53-28-18-9-36-19-54-29-10 1-21 2-31 3 19 9 38 18 56 28 18 9 37 18 55 27 4 2 4 6-1 8-6 3-14 3-19 1-20-10-40-20-61-30-21-11-42-21-63-31-11 1-23 2-34 3 22 10 44 20 65 29 22 10 43 19 63 29 5 2 5 6-1 9-5 3-14 3-19 1-24-11-47-21-71-32-25-11-49-22-74-33-12 1-25 2-37 3 26 11 51 21 76 32 24 10 49 20 73 30 5 2 5 6-1 9s-16 4-22 2c-26-11-54-23-82-34s-57-23-87-35L0 97V49l15-1c-5-2-10-4-15-7V21l7 3c17 7 34 15 51 23 15-1 29-1 43-2-15-7-31-14-46-22C39 15 23 8 7 0h41c15 8 31 15 46 22 15 8 30 15 45 22 13 0 26-1 39-1-13-7-27-14-40-21-14-7-28-15-42-22h36c13 7 27 14 40 21l39 21c12-1 24-1 36-1-12-7-24-14-36-20-11-7-23-14-35-21h31c12 7 23 13 35 20 11 7 22 13 34 20 11-1 22-1 32-1-10-7-20-13-30-19-10-7-21-13-31-20h27c10 6 20 13 30 19 11 6 20 13 30 19 10 0 21-1 30-1-8-6-17-12-26-18-9-7-18-13-27-19h24c9 6 18 12 26 18l27 18h27c-7-6-15-12-23-18S377 6 369 0h22c7 6 15 12 22 17 8 6 16 12 23 18 9 0 17-1 26-1-7-6-14-11-20-17-7-6-14-11-20-17h19c7 6 13 11 20 17 6 5 13 11 19 16v23zM0 104c25 9 50 19 75 28 28 11 56 21 84 32 6 2 6 7-1 10s-17 4-24 2c-30-12-62-24-95-36-13-5-26-9-39-14v-22zm0 40c32 11 63 21 94 32 7 2 7 7-1 11-7 3-18 4-25 2-23-8-45-15-68-23v-22zM480 10c-3-4-7-7-10-10h10v10zM0 182c8 3 15 5 23 7 7 3 7 8-1 12-6 3-15 4-22 4v-23z" style="mask:url(#id0);fill:#ccc;fill-rule:nonzero"/><path d="M306 274c-11-5-24-10-43-6l43 6zm99-38c62-44 37-116-1-139-36-22-98-20-123 46-65 26-57 99-18 125-16 2-55 26-46 72 5 25 27 47 59 48h102c68-8 96-110 27-152zm-30-10c8 1 19 3 33 12l-33-12zm-94-83c20-8 33-5 46-1l-46 1z" style="fill:#b3b3b3"/><path id="1" d="M306 274c-11-5-24-10-43-6m142-32c62-44 37-116-1-139-36-22-98-20-123 46-65 26-57 99-18 125-16 2-55 26-46 72 5 25 27 47 59 48h102c68-8 96-110 27-152zm-30-10c8 1 19 3 33 12m-127-95c20-8 33-5 46-1" class="fil2" style="stroke:#062845;stroke-width:11.811;stroke-linecap:round;stroke-linejoin:round"/></g></svg>