<svg xmlns="http://www.w3.org/2000/svg" xml:space="preserve" width="480" height="420" style="shape-rendering:geometricPrecision;text-rendering:geometricPrecision;image-rendering:optimizeQuality;fill-rule:evenodd;clip-rule:evenodd"><defs><style>.str0{stroke:#fff;stroke-width:11.811;stroke-linecap:round;stroke-linejoin:round}.fil1{fill:none}.fil0{fill:#b3b3b3}.fil4{fill:#fff}</style></defs><g id="Layer_x0020_1"><path d="M338 263c0-31-26-57-58-57-10 0-19 2-28 7-7-44-45-78-91-78-52 0-94 41-94 93 0 8 1 15 3 23-2-1-5-1-8-1-20 0-36 16-36 35 0 20 16 36 36 36h218c32 0 58-26 58-58zm-87-12c2-8 3-15 3-23 0-5-1-10-2-15l-1 38z" class="fil0"/><path id="1" d="M338 263c0-31-26-57-58-57-10 0-19 2-28 7-7-44-45-78-91-78-52 0-94 41-94 93 0 8 1 15 3 23-2-1-5-1-8-1-20 0-36 16-36 35 0 20 16 36 36 36h218c32 0 58-26 58-58zm-87-12c2-8 3-15 3-23 0-5-1-10-2-15" class="fil1 str0"/><path d="M454 201c0-29-23-53-52-53-9 0-18 3-25 7-6-40-41-71-83-71-47 0-85 38-85 84 0 8 1 15 3 21-3 0-5-1-8-1-18 0-32 15-32 33 0 17 14 32 32 32h198c29 0 52-24 52-52zm-79-12c2-7 3-14 3-21 0-4 0-9-1-13l-2 34z" class="fil0"/><path d="M454 201c0-29-23-53-52-53-9 0-18 3-25 7-6-40-41-71-83-71-47 0-85 38-85 84 0 8 1 15 3 21-3 0-5-1-8-1-18 0-32 15-32 33 0 17 14 32 32 32h198c29 0 52-24 52-52zm-79-12c2-7 3-14 3-21 0-4 0-9-1-13" class="fil1 str0"/><path d="M447 273c8 8 13 19 13 31s-5 24-13 32-19 13-32 13H269c-9 0-16-4-21-9-6-5-9-13-9-21s3-16 9-21c5-5 11-8 19-9v-9c0-19 7-36 20-48 12-13 29-20 48-20 17 0 32 6 44 16 11 9 18 21 22 34 1 0 2-1 3-1 4-1 8-1 11-1 13 0 24 5 32 13z" style="fill:#fff;fill-rule:nonzero"/><path d="M448 304c0-9-4-17-10-23-5-6-14-10-23-10-3 0-5 1-8 1-1 1-3 1-4 2v15c-1 3-1 5-2 8s-4 5-7 4c-3 0-5-4-4-7 0-2 1-4 1-7 0-2 1-4 1-7 0-1 0-3-1-4v-5c-2-14-9-25-19-34-10-8-23-13-37-13-16 0-30 6-40 16s-17 25-17 40c0 3 0 5 1 7 0 3 0 5 1 7 1 3-1 7-4 7-1 1-2 1-3 0h-4c-5 0-10 2-13 5s-5 8-5 13 2 9 5 13c3 3 8 5 13 5h146c9 0 18-4 23-10 6-6 10-14 10-23z" style="fill:#b3b3b3;fill-rule:nonzero"/><g id="snowflakes"><path id="rect3428" d="M279 352v8l-7-7-3 3 10 11v11l-10-6-3-14-5 2 3 9-7-4-2 4 6 4-9 2 1 5 14-4 10 6-10 5-14-3-1 4 9 3-6 3 2 4 7-3-3 9 5 1 3-14 10-5v11l-10 10 3 3 7-6v7h5v-7l6 6 4-3-10-10v-11l9 5 4 14 4-1-2-9 6 3 3-4-7-3 10-3-2-4-13 3-10-5 10-6 13 4 2-5-10-2 7-4-3-4-6 4 2-9-4-2-4 14-9 6v-11l10-11-4-3-6 7v-8z" class="fil4"/><path id="rect3428_0" d="M342 353v7l-7-7-3 4 10 10v11l-10-6-3-13-5 1 3 9-7-4-2 4 6 4-9 3 1 4 14-4 10 6-10 5-14-3-1 4 9 3-6 4 2 4 7-4-3 9 5 1 3-13 10-6v11l-10 10 3 4 7-7v7h5v-7l7 7 3-4-10-10v-11l9 6 4 13 5-1-3-9 7 4 2-4-6-4 9-3-1-4-14 3-10-5 10-6 14 4 1-4-9-3 6-4-2-4-7 4 3-9-5-1-4 13-9 6v-11l10-10-3-4-7 7v-7z" class="fil4"/><path id="rect3428_1" d="M405 352v8l-7-7-3 3 10 11v11l-9-6-4-14-5 2 3 9-7-4-2 4 7 4-10 2 1 5 14-4 10 6-10 5-14-3-1 4 10 3-7 3 2 4 7-3-3 9 5 1 4-14 9-5v11l-10 10 3 3 7-6v7h5v-7l7 6 3-3-10-10v-11l10 5 3 14 5-1-3-9 7 3 2-4-6-3 9-3-1-4-14 3-10-5 10-6 14 4 1-5-9-2 6-4-2-4-7 4 3-9-5-2-3 14-10 6v-11l10-11-3-3-7 7v-8z" class="fil4"/></g><g id="snowflakes_2"><path id="rect3428_3" d="M89 334v7l-7-7-3 4 10 10v11l-10-6-4-13-4 1 2 9-6-4-3 4 7 4-9 3 1 4 14-4 9 6-9 6-14-4-1 4 9 3-7 4 3 4 6-4-2 9 4 1 4-13 10-6v11l-10 10 3 4 7-7v7h4v-7l7 7 3-4-10-10v-11l10 6 4 13 4-1-2-9 6 4 3-4-7-4 9-3-1-4-14 4-9-6 9-6 14 4 1-4-9-3 7-4-3-4-6 4 2-9-4-1-4 13-10 6v-11l10-10-3-4-7 7v-7z" class="fil4"/><path id="rect3428_4" d="M152 334v7l-7-6-3 3 10 10v11l-10-5-3-14-5 1 2 9-6-3-2 4 6 3-9 3 1 4 14-3 10 5-10 6-14-4-1 5 9 2-6 4 2 4 6-4-2 9 5 2 3-14 10-6v11l-10 11 3 3 7-7v8h5v-8l6 7 4-3-10-11v-11l9 6 4 14 4-2-2-9 6 4 3-4-7-4 10-2-2-5-13 4-10-6 10-5 13 3 2-4-10-3 7-3-3-4-6 3 2-9-4-1-4 14-9 5v-11l10-10-4-3-6 6v-7z" class="fil4"/><path id="rect3428_5" d="M215 334v7l-7-7-3 4 10 10v11l-10-6-3-13-5 1 3 9-7-4-2 4 6 4-9 3 1 4 14-4 10 6-10 6-14-4-1 4 9 3-6 4 2 4 7-4-3 9 5 1 3-13 10-6v11l-10 10 3 4 7-7v7h5v-7l6 7 4-4-10-10v-11l9 6 4 13 5-1-3-9 7 4 2-4-7-4 10-3-2-4-13 4-10-6 10-6 13 4 2-4-10-3 7-4-2-4-7 4 3-9-5-1-4 13-9 6v-11l10-10-4-4-6 7v-7z" class="fil4"/></g></g></svg>