<svg xmlns="http://www.w3.org/2000/svg" xml:space="preserve" width="480" height="420" style="shape-rendering:geometricPrecision;text-rendering:geometricPrecision;image-rendering:optimizeQuality;fill-rule:evenodd;clip-rule:evenodd"><defs><style>.str0{stroke:#062845;stroke-width:11.811}.str1{stroke:#52b1ff;stroke-width:8.85827;stroke-linecap:round;stroke-linejoin:round}.fil2{fill:none}</style></defs><g id="Layer_x0020_1"><g id="_233643032"><path d="M382 210c0-79-63-142-142-142S98 131 98 210s63 142 142 142 142-63 142-142z" class="str0" style="fill:#023557"/><path d="M254 69h-14c-78 0-141 63-141 141s63 141 141 141h13c18-3 14-21 8-25-29-22-49-66-49-116 0-51 20-94 49-117 7-2 9-21-7-24z" class="str0" style="fill:#fff2c9"/></g><g id="_233641496"><path d="m416 59-7 23m15-8-23-6" class="fil2 str1"/><path d="m90 105-12 45m29-16-45-12" class="fil2" style="stroke:gray;stroke-width:5.90551;stroke-linecap:round;stroke-linejoin:round"/><path d="m282 13-12 45m28-16-45-12" class="fil2" style="stroke:#ccc;stroke-width:2.95276;stroke-linecap:round;stroke-linejoin:round"/><path d="m59 58-6 23m14-9-23-6" class="fil2 str1"/><path d="m419 135-12 45m29-16-45-12" class="fil2" style="stroke:#fff;stroke-width:2.95276;stroke-linecap:round;stroke-linejoin:round"/></g><g id="_233636120"><path d="M447 273c8 8 13 19 13 31s-5 24-13 32-19 13-32 13H269c-9 0-16-4-21-9-6-5-9-13-9-21s3-16 9-21c5-5 11-8 19-9v-9c0-19 7-36 20-48 12-13 29-20 48-20 17 0 32 6 44 16 11 9 18 21 22 34 1 0 2-1 3-1 4-1 8-1 11-1 13 0 24 5 32 13z" style="fill:#fff;fill-rule:nonzero"/><path d="M448 304c0-9-4-17-10-23-5-6-14-10-23-10-3 0-5 1-8 1-1 1-3 1-4 2v15c-1 3-1 5-2 8s-4 5-7 4c-3 0-5-4-4-7 0-2 1-4 1-7 0-2 1-4 1-7 0-1 0-3-1-4v-5c-2-14-9-25-19-34-10-8-23-13-37-13-16 0-30 6-40 16s-17 25-17 40c0 3 0 5 1 7 0 3 0 5 1 7 1 3-1 7-4 7-1 1-2 1-3 0h-4c-5 0-10 2-13 5s-5 8-5 13 2 9 5 13c3 3 8 5 13 5h146c9 0 18-4 23-10 6-6 10-14 10-23z" style="fill:#999;fill-rule:nonzero"/></g><path d="m273 364 16-15c3 3 12 11 16 15 8 8 8 21 0 29-9 8-23 8-32 0s-9-21 0-29zm60 0 16-15c4 3 12 11 16 15 9 8 9 21 0 29s-23 8-32 0-9-21 0-29zm61 0 16-15c3 3 12 11 15 15 9 8 9 21 0 29-8 8-22 8-31 0s-9-21 0-29z" style="fill:#52b1ff"/></g></svg>