<svg xmlns="http://www.w3.org/2000/svg" xml:space="preserve" width="480" height="420" style="shape-rendering:geometricPrecision;text-rendering:geometricPrecision;image-rendering:optimizeQuality;fill-rule:evenodd;clip-rule:evenodd"><defs><style>.fil1{fill:#fff;fill-rule:nonzero}</style></defs><g id="Layer_x0020_1"><path d="M376 338c2 2 2 6 0 8-3 2-6 2-9 0l-62-63c-2-2-2-6 0-8s6-2 8 0l63 63zM175 137c2 2 2 6 0 8s-6 2-8 0l-63-63c-2-2-2-6 0-8 3-2 6-2 9 0l62 63zm251 67c4 0 6 3 6 6s-2 6-6 6h-88c-4 0-6-3-6-6s2-6 6-6h88zm-284 0c4 0 6 3 6 6s-2 6-6 6H54c-4 0-6-3-6-6s2-6 6-6h88zM367 74c3-2 6-2 9 0 2 2 2 6 0 8l-63 63c-2 2-6 2-8 0s-2-6 0-8l62-63zM167 275c2-2 6-2 8 0s2 6 0 8l-62 63c-3 2-6 2-9 0-2-2-2-6 0-8l63-63zm198-19c4 1 5 4 4 7-2 3-5 5-8 4l-33-14c-3-1-4-5-3-8s5-4 8-3l32 14zm-213-89c3 2 4 5 3 8s-5 4-8 3l-33-14c-3-1-4-4-3-7s5-5 8-3l33 13zm134-83c1-3 4-4 7-3s5 5 3 8l-13 33c-1 3-5 4-8 3s-4-5-3-8l14-33zm-89 214c1-3 5-4 8-3s4 5 3 8l-14 33c-1 3-4 4-7 3s-5-5-4-8l14-33zm164-144c3-2 6 0 8 3 1 3-1 6-4 7l-32 14c-3 1-7 0-8-3s0-7 3-8l33-13zm-214 88c3-1 7 0 8 3s0 7-3 8l-33 14c-3 1-6-1-8-4-1-3 0-6 3-7l33-14zm149 89c2 3 0 7-3 8s-6 0-7-3l-14-33c-1-3 0-7 3-8s7 0 8 3l13 33zm-88-214c1 3 0 7-3 8s-7 0-8-3l-13-33c-2-3 0-6 3-8 3-1 6 0 8 4l13 32zm26-93c0-4 3-6 6-6s6 2 6 6v88c0 3-3 6-6 6s-6-3-6-6V24zm0 284c0-3 3-6 6-6s6 3 6 6v71c0 3-3 6-6 6s-6-3-6-6v-71zm6-24c41 0 74-33 74-74s-33-74-74-74-74 33-74 74 33 74 74 74z" style="fill:#ffd153;fill-rule:nonzero"/><g id="_228466928"><path d="M395 337c0-13-5-24-13-33-9-8-20-13-33-13-4 0-8 0-12 1-2 1-5 2-7 3v2c1 3 1 5 1 8s-1 7-1 11c-1 4-1 7-2 11-1 3-4 5-7 4-4-1-5-4-5-7 1-3 2-6 2-10 1-3 1-6 1-9v-7c-1-2-1-4-1-6-3-19-13-35-27-47s-31-19-51-19c-22 0-41 9-55 23-15 14-23 34-23 56v9c1 4 1 7 2 10s-1 6-4 7h-6c-1-1-2-1-3-1-8 0-14 3-19 8s-8 12-8 19 3 14 8 18c5 5 11 8 19 8h198c13 0 24-5 33-13 8-9 13-20 13-33zm-5-41c10 10 17 25 17 41s-7 30-17 41c-11 10-25 17-41 17H151c-11 0-20-4-27-11s-12-17-12-27c0-11 5-20 12-27s16-11 27-11c0-1 0-2-1-3v-11c0-25 10-48 26-64 17-17 39-27 64-27 23 0 43 8 59 22 14 12 24 28 29 47 2-1 4-2 6-2 5-2 10-2 15-2 16 0 30 6 41 17zm-72-4z" class="fil1"/><path d="M395 337c0-13-5-24-13-33-9-8-20-13-33-13-4 0-8 0-12 1-2 1-5 2-7 3v2c1 3 1 5 1 8s-1 7-1 11c-1 4-1 7-2 11-1 3-4 5-7 4-4-1-5-4-5-7 1-3 2-6 2-10 1-3 1-6 1-9v-7c-1-2-1-4-1-6-3-19-13-35-27-47s-31-19-51-19c-22 0-41 9-55 23-15 14-23 34-23 56v9c1 4 1 7 2 10s-1 6-4 7h-6c-1-1-2-1-3-1-8 0-14 3-19 8s-8 12-8 19 3 14 8 18c5 5 11 8 19 8h198c13 0 24-5 33-13 8-9 13-20 13-33z" style="fill:#e6e6e6"/><g id="_228462632"><path d="M271 312c0-9-3-18-9-24-6-5-14-9-23-9-3 0-6 0-8 1-2 0-3 1-5 1 0 1 1 1 1 1v6c0 2 0 5-1 8 0 3-1 6-1 9-1 3-4 5-8 4-3-1-5-4-4-7s1-5 2-7v-12c0-1-1-3-1-4v-1c-2-13-9-25-19-33-10-9-23-14-37-14-15 0-29 6-40 17-10 10-16 24-16 40v7c0 2 1 4 1 7 1 3-1 6-4 7h-3c-1 0-1 0-2-1h-2c-5 0-9 2-13 6-3 3-5 7-5 12s2 10 5 13c4 3 8 5 13 5h147c9 0 17-3 23-9s9-14 9-23z" style="fill:#e6e6e6;fill-rule:nonzero"/><path d="M270 280c8 8 13 19 13 32 0 12-5 23-13 31s-19 13-31 13H92c-8 0-16-3-21-9-5-5-9-12-9-21 0-8 4-15 9-21 5-5 12-8 19-8v-9c0-19 8-36 20-49 12-12 29-20 48-20 17 0 33 6 45 17 10 8 18 20 21 33 1 0 3 0 4-1 3 0 7-1 11-1 12 0 23 5 31 13zm1 32c0-9-3-18-9-24-6-5-14-9-23-9-3 0-6 0-8 1-2 0-3 1-5 1 0 1 1 1 1 1v6c0 2 0 5-1 8 0 3-1 6-1 9-1 3-4 5-8 4-3-1-5-4-4-7s1-5 2-7v-12c0-1-1-3-1-4v-1c-2-13-9-25-19-33-10-9-23-14-37-14-15 0-29 6-40 17-10 10-16 24-16 40v7c0 2 1 4 1 7 1 3-1 6-4 7h-3c-1 0-1 0-2-1h-2c-5 0-9 2-13 6-3 3-5 7-5 12s2 10 5 13c4 3 8 5 13 5h147c9 0 17-3 23-9s9-14 9-23z" class="fil1"/></g></g></g></svg>